<?xml version="1.0" encoding="UTF-8" standalone="no"?>
<!-- Creator: fig2dev Version 3.2 Patchlevel 5e -->

<!-- CreationDate: Tue May 31 10:58:01 2016 -->

<!-- Magnification: 1.050 -->

<svg
   xmlns:dc="http://purl.org/dc/elements/1.1/"
   xmlns:cc="http://creativecommons.org/ns#"
   xmlns:rdf="http://www.w3.org/1999/02/22-rdf-syntax-ns#"
   xmlns:svg="http://www.w3.org/2000/svg"
   xmlns="http://www.w3.org/2000/svg"
   xmlns:sodipodi="http://sodipodi.sourceforge.net/DTD/sodipodi-0.dtd"
   xmlns:inkscape="http://www.inkscape.org/namespaces/inkscape"
   width="377.50983"
   height="237.9183"
   viewBox="2255 830 5051.8795 3223.0001"
   id="svg2"
   version="1.1"
   inkscape:version="0.48.5 r10040"
   sodipodi:docname="torus-vill-24.svg">
  <metadata
     id="metadata140">
    <rdf:RDF>
      <cc:Work
         rdf:about="">
        <dc:format>image/svg+xml</dc:format>
        <dc:type
           rdf:resource="http://purl.org/dc/dcmitype/StillImage" />
        <dc:title></dc:title>
      </cc:Work>
    </rdf:RDF>
  </metadata>
  <defs
     id="defs138" />
  <sodipodi:namedview
     pagecolor="#ffffff"
     bordercolor="#666666"
     borderopacity="1"
     objecttolerance="10"
     gridtolerance="10"
     guidetolerance="10"
     inkscape:pageopacity="0"
     inkscape:pageshadow="2"
     inkscape:window-width="1228"
     inkscape:window-height="602"
     id="namedview136"
     showgrid="false"
     units="mm"
     fit-margin-top="2"
     fit-margin-left="2"
     fit-margin-right="2"
     fit-margin-bottom="2"
     inkscape:zoom="1.66864"
     inkscape:cx="188.75491"
     inkscape:cy="118.95915"
     inkscape:window-x="0"
     inkscape:window-y="0"
     inkscape:window-maximized="0"
     inkscape:current-layer="svg2" />
  <g
     style="fill:none;stroke-width:0.025in"
     id="g4"
     transform="translate(57.639921,87.000003)">
    <!-- Line -->
    <!--  polyline  -->
    <polyline
       points="3934,2628 3977,2637 4019,2651 4062,2661 4109,2670 4152,2680 4199,2689 4246,2695 4293,2703 4341,2708 4392,2713 4440,2718 4487,2722 4539,2727 4591,2727 4638,2732 4690,2732 4742,2732 4789,2732 4841,2732 4893,2727 4941,2722 4992,2722 5040,2718 5087,2713 5139,2703 5186,2699 5233,2689 5276,2680 5323,2676 5370,2666 5413,2651 5455,2642 5498,2634 5537,2618 5579,2609 5616,2595 5654,2581 5687,2566 5720,2552 5753,2538 5786,2524 5815,2510 5843,2496 5871,2481 5896,2467 5918,2453 5938,2439 5956,2425 5975,2411 5989,2396 6003,2387 6013,2373 6023,2363 6032,2354 6037,2349 6041,2340 6046,2335 6046,2330 6051,2330 "
       style="stroke:#000000;stroke-width:8;stroke-linecap:butt;stroke-linejoin:round"
       id="polyline6" />
    <!-- Line -->
    <!--  polyline  -->
    <polyline
       points="6027,2344 6018,2335 6008,2325 5994,2317 5981,2302 5961,2288 5942,2274 5923,2259 5900,2245 5876,2232 5853,2217 5824,2203 5796,2188 5767,2174 5734,2160 5701,2146 5664,2132 5630,2118 5592,2103 5550,2094 5512,2080 5470,2070 5427,2056 5385,2047 5337,2037 5295,2028 5248,2018 5201,2014 5153,2004 5106,2001 5054,1995 5007,1990 4959,1985 4907,1981 4855,1981 4808,1976 4756,1976 4704,1976 4657,1976 4605,1976 4553,1981 4507,1985 4454,1985 4407,1990 4360,1995 4307,2004 4260,2009 4213,2018 4170,2028 4123,2033 4076,2043 4033,2056 3991,2066 3948,2075 3911,2089 3868,2099 3830,2113 3792,2128 3759,2141 3727,2155 3693,2171 3660,2184 3632,2198 3604,2213 3575,2226 3552,2240 3528,2255 3509,2269 3490,2283 3471,2297 3457,2311 3443,2321 3433,2335 3424,2344 3415,2354 "
       style="stroke:#000000;stroke-width:8;stroke-linecap:butt;stroke-linejoin:round"
       id="polyline8" />
    <!-- Line -->
    <!--  polyline  -->
    <polyline
       points="3396,2330 3400,2335 3400,2340 3405,2344 3415,2354 3419,2363 3429,2373 3438,2382 3453,2392 3466,2406 3485,2420 3504,2434 3523,2448 3547,2462 3570,2477 3594,2491 3623,2506 3651,2519 3679,2533 3712,2548 3745,2562 3783,2576 3816,2591 3854,2604 3897,2614 3934,2628 "
       style="stroke:#000000;stroke-width:8;stroke-linecap:butt;stroke-linejoin:round"
       id="polyline10" />
    <!-- Line -->
    <!--  polyline  -->
    <polyline
       points="3623,3714 3685,3733 3745,3752 3812,3766 3874,3781 3939,3795 4005,3804 4071,3814 4137,3823 4204,3834 4270,3842 4337,3847 4407,3856 4473,3856 4539,3861 4611,3866 4676,3866 4747,3866 4813,3866 4885,3861 4950,3861 5016,3856 5087,3851 5153,3842 5219,3837 5286,3828 5356,3818 5418,3809 5484,3795 5550,3785 5616,3771 5677,3757 5744,3738 5805,3724 5866,3706 5928,3687 5989,3667 6046,3645 6107,3620 6164,3596 6221,3573 6277,3549 6329,3521 6386,3492 6438,3464 6490,3432 6542,3398 6590,3365 6637,3332 6684,3294 6731,3256 6774,3214 6816,3171 6859,3129 6901,3086 6939,3039 6972,2987 7005,2940 7038,2883 7066,2831 7096,2774 7118,2713 7138,2651 7152,2591 7166,2529 7175,2462 7181,2396 7181,2330 7175,2269 7170,2203 7156,2136 7142,2075 7123,2014 7099,1958 7076,1897 7048,1844 7019,1787 6986,1735 6949,1688 6911,1640 6873,1593 6830,1551 6788,1508 6745,1466 6703,1428 6655,1391 6608,1352 6556,1319 6509,1287 6457,1258 6405,1225 6348,1196 6297,1168 6240,1144 6183,1117 6127,1092 6065,1075 6008,1050 5947,1032 5885,1007 5824,993 5763,974 5701,955 5635,941 5574,928 5507,913 5441,903 5375,894 5309,886 5244,875 5177,866 5111,861 5040,851 4974,851 4907,847 4837,843 4770,843 4700,843 4633,843 4563,847 4496,847 4430,851 4360,856 4293,866 4227,870 4161,880 4090,889 4029,899 3963,913 3897,922 3830,936 3770,951 3703,971 3641,984 3581,1003 3519,1022 3457,1040 3400,1064 3339,1088 3282,1111 3226,1135 3169,1160 3118,1187 3060,1215 3008,1245 2956,1277 2904,1310 2857,1343 2810,1376 2763,1414 2716,1451 2674,1495 2630,1537 2588,1580 2545,1623 2508,1669 2474,1721 2441,1769 2408,1825 2381,1877 2352,1933 2328,1995 2309,2056 2296,2118 2281,2179 2271,2245 2267,2311 2267,2377 2271,2439 2276,2506 2290,2571 2304,2634 2323,2695 2347,2751 2370,2812 2399,2865 2427,2921 2460,2973 2498,3020 2536,3067 2574,3114 2616,3158 2659,3199 2701,3243 2744,3280 2791,3318 2838,3355 2890,3388 2937,3422 2990,3450 3041,3483 3098,3511 3150,3540 3207,3563 3264,3592 3320,3615 3381,3634 3438,3658 3500,3677 3561,3700 3623,3714 "
       style="stroke:#000000;stroke-width:8;stroke-linecap:butt;stroke-linejoin:round"
       id="polyline12" />
    <!-- Line -->
    <!--  polyline  -->
    <polyline
       points="6018,2335 5989,2297 5961,2259 5928,2222 5896,2184 5857,2151 5819,2113 5781,2075 5744,2043 5701,2004 5659,1971 5616,1939 5574,1905 5526,1872 5479,1844 5433,1812 5385,1782 5337,1754 5286,1725 5233,1697 5181,1669 5130,1645 5077,1617 5021,1593 4970,1574 4912,1551 4855,1532 4799,1508 4742,1495 4685,1476 4629,1456 4572,1442 4515,1428 4459,1414 4402,1404 4345,1395 4289,1385 4227,1376 4170,1366 4114,1362 4062,1357 4005,1357 3948,1352 3892,1352 3840,1352 3783,1352 3731,1357 3679,1362 3627,1366 3575,1371 3528,1381 3476,1391 3429,1400 3381,1409 3334,1423 3292,1437 3249,1451 3202,1466 3164,1485 3122,1503 3084,1522 3046,1541 3008,1565 2975,1584 2942,1607 2909,1631 2881,1659 2848,1683 2824,1711 2796,1740 2772,1769 2748,1796 2730,1829 2711,1858 2692,1891 2678,1924 2663,1958 2649,1990 2640,2023 2630,2061 2626,2094 2621,2132 2616,2171 2616,2207 2616,2240 2616,2278 2621,2321 2626,2360 2635,2396 2644,2434 2654,2472 2668,2510 2682,2552 2697,2591 2716,2628 2734,2670 2759,2708 2781,2746 2805,2784 2833,2826 2862,2865 2890,2902 2919,2940 2952,2977 2985,3015 3022,3048 3060,3086 3098,3124 3137,3158 3179,3195 3222,3228 3264,3261 3307,3294 3353,3328 3400,3355 3448,3388 3496,3417 3542,3445 3594,3474 3646,3502 3698,3530 3750,3554 3802,3577 3859,3602 3911,3625 3967,3648 4024,3667 4081,3687 4137,3706 4194,3724 4251,3743 4307,3757 4364,3771 4422,3785 4477,3795 4534,3804 4591,3814 4653,3823 4709,3828 4766,3837 4818,3842 4874,3842 4931,3847 4988,3847 5040,3847 5097,3847 5148,3842 5201,3837 5252,3834 5304,3828 5352,3818 5403,3809 5451,3799 5498,3791 "
       style="stroke:#cc0000;stroke-width:16;stroke-linecap:butt;stroke-linejoin:round"
       id="polyline14" />
    <!-- Line -->
    <!--  spline  -->
    <polyline
       points="4477,2600 4477,2599 4477,2597 4476,2592 4476,2590 4476,2588 4475,2586 4474,2584 4472,2581 4470,2577 4468,2574 4467,2573 4466,2572 4462,2570 4459,2567 4458,2566 4457,2566 4456,2565 4452,2564 4448,2563 4445,2562 4443,2562 4440,2562 4439,2562 4436,2563 4432,2563 4429,2564 4428,2564 4426,2565 4424,2566 4420,2567 4417,2570 4414,2572 4413,2573 4412,2573 4411,2574 4409,2577 4407,2580 4406,2582 4406,2583 4405,2584 4404,2588 4403,2593 4402,2596 4402,2598 4402,2600 4402,2601 4403,2603 4403,2608 4404,2611 4404,2612 4405,2614 4405,2616 4407,2619 4409,2622 4411,2625 4412,2626 4413,2627 4414,2628 4417,2630 4420,2633 4422,2633 4423,2634 4424,2634 4428,2635 4432,2636 4435,2637 4438,2637 4440,2637 4441,2637 4444,2636 4449,2636 4451,2635 4452,2635 4454,2635 4456,2634 4459,2633 4462,2630 4466,2628 4467,2627 4467,2626 4468,2625 4470,2622 4472,2619 4473,2618 4474,2617 4475,2615 4476,2612 4477,2607 4477,2604 4477,2602 4477,2600 "
       style="stroke:#ffffff;stroke-width:16;stroke-linecap:butt;stroke-linejoin:bevel"
       id="polyline16" />
    <!-- Line -->
    <!--  polyline  -->
    <polyline
       points="4350,861 4298,866 4246,870 4194,875 4142,880 4095,889 4044,899 3996,908 3948,918 3901,932 3859,946 3816,960 3770,974 3731,993 3689,1013 3651,1032 3613,1050 3575,1075 3542,1092 3509,1117 3476,1140 3448,1168 3415,1192 3391,1220 3363,1248 3339,1277 3315,1306 3296,1338 3278,1366 3259,1400 3244,1434 3230,1466 3216,1499 3207,1532 3197,1570 3193,1603 3188,1640 3183,1678 3183,1716 3183,1754 3183,1792 3188,1829 3193,1867 3202,1905 3211,1943 3222,1981 3235,2023 3249,2061 3264,2099 3282,2136 3301,2179 3325,2217 3349,2255 3372,2292 3400,2335 "
       style="stroke:#0000cc;stroke-width:16;stroke-linecap:butt;stroke-linejoin:round"
       id="polyline18" />
    <!-- Line -->
    <!--  spline  -->
    <polyline
       points="5044,2108 5044,2107 5044,2104 5043,2099 5043,2097 5043,2096 5042,2095 5041,2093 5039,2090 5037,2087 5035,2083 5034,2082 5033,2080 5029,2078 5026,2076 5025,2075 5024,2074 5023,2074 5019,2072 5015,2071 5012,2070 5009,2070 5007,2070 5006,2070 5003,2071 4999,2071 4996,2072 4995,2072 4993,2073 4991,2074 4987,2076 4984,2078 4981,2080 4980,2082 4979,2082 4978,2083 4976,2087 4974,2090 4973,2091 4972,2093 4971,2096 4970,2100 4970,2103 4970,2106 4970,2108 4970,2109 4970,2112 4971,2116 4971,2119 4971,2120 4972,2121 4972,2123 4974,2127 4976,2130 4978,2133 4979,2134 4980,2135 4981,2136 4984,2139 4987,2141 4988,2142 4990,2142 4991,2143 4995,2144 4999,2145 5002,2146 5005,2146 5007,2146 5008,2146 5011,2145 5016,2145 5018,2144 5019,2144 5021,2143 5023,2143 5026,2141 5029,2139 5033,2136 5034,2135 5034,2134 5035,2133 5037,2130 5039,2127 5040,2125 5041,2125 5042,2123 5043,2120 5044,2116 5044,2113 5044,2110 5044,2108 "
       style="stroke:#ffffff;stroke-width:16;stroke-linecap:butt;stroke-linejoin:bevel"
       id="polyline20" />
    <!-- Line -->
    <!--  polyline  -->
    <polyline
       points="6032,2349 5994,2317 5961,2278 5923,2245 5885,2213 5843,2179 5805,2141 5763,2108 5715,2080 5673,2047 5626,2014 5579,1985 5531,1952 5484,1924 5433,1897 5385,1867 5333,1839 5281,1815 5229,1787 5172,1763 5120,1740 5063,1716 5012,1692 4955,1674 4898,1650 4841,1631 4789,1612 4733,1593 4676,1580 4619,1565 4563,1551 4507,1537 4444,1522 4392,1513 4337,1503 4279,1495 4222,1485 4166,1480 4109,1476 4057,1470 4001,1466 3948,1466 3897,1461 3844,1461 3792,1466 3741,1466 3693,1470 3641,1476 3594,1480 3547,1489 3500,1495 3457,1503 3411,1518 3367,1527 3325,1541 3287,1555 3249,1570 3211,1584 3174,1603 3137,1617 3103,1636 3070,1655 3041,1678 3013,1697 2985,1721 2956,1744 2933,1769 2909,1796 2890,1820 2871,1848 2852,1877 2833,1905 2819,1933 2810,1962 2796,1995 2786,2023 2781,2056 2772,2089 2772,2118 2767,2155 2767,2188 2767,2222 2772,2255 2777,2292 2786,2325 2791,2360 2805,2396 2815,2434 2829,2467 2844,2506 2862,2543 2881,2576 2900,2614 2923,2651 2948,2689 2970,2722 2999,2760 3027,2798 3060,2831 3089,2869 3122,2908 3160,2940 3193,2977 3230,3012 3268,3044 3311,3077 3349,3110 3391,3143 3438,3176 3481,3209 3528,3243 3575,3270 3623,3303 3670,3332 3722,3360 3770,3388 3821,3417 3874,3440 3925,3469 3977,3492 4033,3517 4086,3540 4142,3563 4199,3582 4255,3606 4307,3625 4364,3645 4422,3658 4477,3677 4534,3691 4591,3706 4648,3719 4704,3733 4761,3743 4818,3752 4874,3762 4931,3771 4988,3776 5040,3781 5097,3785 5148,3791 5205,3791 5257,3795 5309,3795 5361,3791 5413,3791 5460,3785 5512,3781 5560,3776 5607,3766 5654,3757 5696,3752 5744,3738 5786,3729 5824,3714 5866,3700 5904,3687 "
       style="stroke:#cc0000;stroke-width:8;stroke-linecap:butt;stroke-linejoin:round"
       id="polyline22" />
    <!-- Line -->
    <!--  polyline  -->
    <polyline
       points="5999,2317 5956,2283 5914,2255 5871,2222 5829,2193 5781,2160 5734,2132 5687,2103 5640,2075 5592,2047 5541,2018 5489,1990 5441,1966 5385,1939 5333,1914 5281,1891 5224,1867 5172,1844 5116,1820 5063,1801 5007,1782 4950,1763 4893,1744 4837,1725 4781,1708 4723,1692 4666,1678 4611,1665 4553,1650 4496,1640 4440,1626 4383,1617 4331,1607 4275,1598 4222,1593 4166,1588 4114,1584 4062,1580 4005,1574 3959,1574 3906,1574 3854,1574 3807,1574 3759,1574 3712,1580 3665,1584 3618,1588 3575,1598 3533,1603 3490,1612 3448,1623 3411,1631 3372,1645 3334,1655 3296,1669 3264,1683 3230,1702 3202,1716 3174,1735 3145,1754 3118,1773 3093,1792 3070,1812 3046,1834 3027,1854 3008,1877 2994,1900 2975,1929 2966,1952 2952,1976 2942,2004 2933,2033 2928,2061 2923,2089 2923,2118 2919,2146 2923,2174 2923,2207 2928,2236 2933,2269 2942,2302 2952,2330 2966,2363 2975,2396 2994,2429 3008,2462 3027,2496 3046,2529 3070,2562 3093,2595 3118,2628 3145,2661 3174,2695 3202,2727 3230,2760 3264,2793 3296,2826 3334,2859 3372,2892 3411,2925 3448,2959 3490,2992 3533,3020 3575,3054 3618,3081 3665,3114 3712,3143 3759,3171 3807,3199 3854,3228 3906,3256 3959,3286 4005,3308 4062,3336 4114,3360 4166,3384 4222,3407 4275,3432 4331,3455 4383,3474 4440,3492 4496,3511 4553,3530 4611,3549 4666,3568 4723,3582 4781,3596 4837,3611 4893,3625 4950,3634 5007,3648 5063,3658 5116,3667 5172,3677 5224,3681 5281,3687 5333,3691 5385,3696 5441,3700 5489,3700 5541,3700 5592,3700 5640,3700 5687,3700 5734,3696 5781,3691 5829,3687 5871,3677 5914,3672 5956,3662 5999,3653 6037,3645 6074,3629 6112,3620 6150,3606 6183,3592 6216,3573 6244,3559 6274,3540 "
       style="stroke:#cc0000;stroke-width:8;stroke-linecap:butt;stroke-linejoin:round"
       id="polyline24" />
    <!-- Line -->
    <!--  polyline  -->
    <polyline
       points="5947,2274 5900,2245 5853,2217 5805,2188 5753,2165 5707,2136 5654,2113 5602,2089 5550,2066 5498,2043 5446,2018 5390,1995 5337,1971 5281,1952 5224,1933 5167,1910 5111,1891 5054,1872 5002,1858 4941,1839 4885,1825 4827,1806 4770,1792 4714,1777 4657,1769 4605,1754 4549,1744 4492,1735 4435,1725 4383,1716 4326,1708 4275,1702 4218,1692 4166,1688 4114,1688 4062,1683 4015,1683 3963,1678 3916,1678 3868,1678 3821,1683 3774,1683 3731,1688 3685,1692 3641,1697 3604,1702 3561,1711 3523,1721 3485,1730 3453,1740 3415,1750 3381,1759 3353,1773 3320,1787 3292,1801 3268,1815 3240,1829 3216,1848 3193,1862 3174,1881 3155,1900 3137,1919 3122,1943 3107,1962 3098,1985 3084,2004 3079,2028 3070,2051 3065,2075 3065,2099 3060,2128 3060,2151 3065,2179 3070,2203 3075,2232 3079,2259 3089,2283 3103,2311 3112,2340 3126,2368 3145,2402 3164,2429 3183,2458 3202,2487 3226,2514 3249,2548 3278,2576 3307,2604 3334,2634 3367,2666 3396,2695 3429,2722 3466,2755 3504,2784 3542,2812 3581,2840 3623,2869 3660,2897 3703,2925 3750,2954 3792,2982 3840,3012 3887,3039 3934,3062 3986,3091 4033,3114 4086,3143 4137,3166 4190,3190 4241,3214 4298,3237 4350,3261 4407,3280 4459,3303 4515,3322 4572,3346 4629,3365 4685,3379 4742,3398 4799,3417 4855,3432 4912,3450 4970,3464 5026,3474 5082,3488 5139,3502 5191,3511 5248,3521 5304,3530 5361,3540 5413,3549 5470,3554 5522,3559 5574,3563 5626,3568 5677,3573 5725,3573 5777,3577 5824,3577 5871,3577 5918,3573 5966,3573 6008,3568 6055,3563 6098,3559 6136,3554 6178,3544 6216,3535 6254,3525 6287,3517 6325,3507 6359,3497 6386,3483 6419,3469 6448,3455 6476,3440 6500,3426 6523,3407 6548,3388 "
       style="stroke:#cc0000;stroke-width:8;stroke-linecap:butt;stroke-linejoin:round"
       id="polyline26" />
    <!-- Line -->
    <!--  polyline  -->
    <polyline
       points="5819,2193 5767,2174 5715,2151 5664,2132 5607,2108 5555,2089 5498,2070 5441,2051 5385,2033 5333,2014 5276,1995 5219,1976 5159,1962 5101,1947 5044,1929 4988,1914 4931,1900 4874,1891 4818,1877 4761,1862 4704,1854 4648,1844 4591,1834 4534,1825 4477,1815 4426,1812 4369,1801 4318,1796 4265,1792 4213,1787 4161,1787 4109,1782 4062,1782 4015,1782 3967,1782 3920,1782 3874,1782 3830,1787 3788,1787 3745,1792 3703,1796 3665,1801 3627,1812 3589,1815 3552,1825 3519,1834 3485,1844 3457,1854 3429,1862 3400,1877 3372,1886 3349,1900 3325,1914 3301,1929 3282,1943 3264,1958 3249,1976 3235,1990 3222,2009 3211,2028 3202,2047 3193,2066 3188,2086 3183,2108 3183,2128 3183,2146 3183,2171 3188,2193 3193,2213 3197,2236 3207,2259 3216,2283 3230,2307 3244,2330 3259,2360 3278,2382 3296,2406 3315,2429 3339,2458 3363,2481 3391,2510 3415,2533 3448,2557 3476,2585 3509,2609 3542,2637 3575,2661 3613,2689 3651,2713 3689,2737 3731,2765 3770,2788 3816,2812 3859,2840 3901,2865 3948,2888 3996,2911 4044,2935 4095,2959 4142,2982 4194,3006 4246,3025 4298,3048 4350,3067 4407,3091 4459,3110 4515,3129 4572,3147 4629,3166 4681,3185 4738,3204 4794,3223 4855,3237 4912,3251 4970,3270 5026,3286 5082,3299 5139,3308 5196,3322 5252,3336 5309,3346 5366,3355 5422,3365 5479,3374 5537,3384 5588,3388 5644,3398 5696,3403 5749,3407 5800,3413 5853,3413 5904,3417 5952,3417 5999,3417 6046,3417 6093,3417 6141,3417 6183,3413 6226,3413 6268,3407 6311,3403 6348,3398 6386,3388 6424,3384 6462,3374 6495,3365 6528,3355 6556,3346 6585,3336 6613,3322 6641,3313 6665,3299 6688,3286 6712,3270 6731,3256 6750,3243 6764,3223 6779,3204 "
       style="stroke:#cc0000;stroke-width:8;stroke-linecap:butt;stroke-linejoin:round"
       id="polyline28" />
    <!-- Line -->
    <!--  polyline  -->
    <polyline
       points="5711,2136 5654,2122 5597,2103 5541,2089 5484,2070 5427,2056 5370,2043 5314,2028 5252,2014 5196,2004 5139,1990 5082,1981 5021,1966 4964,1958 4907,1947 4851,1939 4794,1929 4738,1919 4681,1910 4624,1905 4567,1900 4511,1891 4459,1886 4402,1881 4350,1881 4298,1877 4246,1872 4199,1872 4148,1872 4100,1872 4052,1872 4005,1872 3959,1872 3916,1877 3874,1877 3830,1881 3788,1886 3750,1891 3712,1897 3674,1905 3637,1910 3604,1919 3570,1924 3542,1933 3514,1943 3485,1952 3457,1966 3433,1976 3415,1985 3391,2001 3372,2014 3353,2023 3339,2037 3325,2051 3311,2070 3301,2086 3292,2099 3287,2118 3282,2132 3278,2151 3278,2171 3278,2184 3282,2203 3282,2222 3292,2240 3296,2259 3307,2278 3320,2302 3330,2321 3349,2340 3363,2360 3381,2382 3400,2402 3424,2425 3448,2445 3471,2467 3500,2487 3528,2510 3556,2529 3589,2552 3623,2571 3655,2595 3693,2614 3731,2637 3770,2656 3807,2680 3849,2699 3892,2722 3934,2741 3981,2765 4029,2784 4076,2803 4123,2823 4170,2845 4222,2865 4275,2883 4326,2902 4379,2916 4430,2935 4487,2954 4539,2973 4596,2987 4653,3006 4709,3020 4766,3034 4823,3054 4879,3067 4936,3081 4992,3091 5054,3105 5111,3119 5167,3129 5224,3143 5286,3152 5342,3162 5399,3171 5455,3181 5512,3190 5569,3195 5626,3204 5682,3209 5734,3218 5791,3223 5843,3228 5900,3228 5952,3233 5999,3237 6051,3237 6103,3237 6150,3237 6197,3237 6244,3237 6292,3237 6334,3233 6377,3233 6419,3228 6462,3223 6500,3218 6537,3214 6575,3204 6608,3199 6641,3190 6675,3185 6707,3176 6737,3166 6764,3158 6788,3143 6811,3133 6835,3124 6859,3110 6877,3097 6892,3081 6911,3067 6925,3054 6934,3039 6944,3025 6953,3012 "
       style="stroke:#cc0000;stroke-width:8;stroke-linecap:butt;stroke-linejoin:round"
       id="polyline30" />
    <!-- Line -->
    <!--  polyline  -->
    <polyline
       points="5333,2033 5276,2023 5215,2014 5159,2004 5097,2001 5040,1990 4983,1985 4922,1976 4865,1971 4808,1966 4752,1962 4696,1958 4638,1952 4581,1947 4530,1947 4473,1943 4422,1943 4369,1943 4318,1943 4265,1943 4213,1943 4166,1943 4118,1943 4071,1947 4024,1947 3981,1952 3934,1958 3892,1962 3854,1966 3812,1971 3774,1976 3741,1985 3703,1990 3670,2001 3637,2004 3608,2014 3581,2023 3552,2033 3523,2043 3500,2051 3476,2061 3457,2075 3438,2086 3419,2099 3405,2108 3391,2122 3381,2136 3367,2151 3363,2165 3353,2179 3349,2193 3349,2207 3344,2222 3349,2236 3349,2250 3353,2269 3363,2283 3367,2302 3377,2317 3391,2335 3405,2349 3419,2368 3438,2382 3457,2402 3476,2415 3500,2434 3523,2453 3547,2467 3575,2487 3604,2506 3637,2524 3670,2538 3703,2557 3736,2576 3774,2591 3812,2609 3849,2623 3892,2642 3934,2661 3977,2676 4024,2689 4066,2708 4114,2722 4161,2741 4213,2755 4260,2770 4312,2784 4364,2798 4416,2812 4473,2826 4525,2840 4581,2855 4633,2869 4690,2883 4747,2892 4804,2908 4865,2916 4922,2930 4978,2940 5035,2950 5097,2959 5153,2969 5215,2977 5271,2987 5328,2992 5390,3001 5446,3006 5503,3015 5564,3020 5622,3025 5677,3029 5734,3034 5791,3039 5848,3044 5900,3044 5956,3048 6008,3048 6060,3048 6112,3048 6164,3048 6216,3048 6263,3048 6311,3048 6359,3044 6405,3044 6448,3039 6490,3034 6533,3029 6575,3025 6613,3020 6651,3015 6688,3006 6726,3001 6760,2992 6792,2987 6822,2977 6849,2969 6877,2959 6907,2950 6929,2940 6953,2930 6972,2916 6991,2908 7011,2892 7024,2883 7038,2869 7048,2855 7057,2840 7066,2826 7076,2812 7081,2798 "
       style="stroke:#cc0000;stroke-width:8;stroke-linecap:butt;stroke-linejoin:round"
       id="polyline32" />
    <!-- Line -->
    <!--  polyline  -->
    <polyline
       points="4974,1981 4917,1981 4855,1976 4799,1976 4742,1976 4685,1976 4629,1976 4577,1976 4520,1976 4468,1981 4411,1981 4360,1985 4312,1985 4260,1990 4208,1995 4161,1995 4114,2001 4066,2004 4024,2014 3981,2018 3939,2023 3897,2028 3854,2037 3816,2043 3783,2051 3745,2061 3712,2070 3679,2075 3646,2086 3618,2094 3589,2103 3566,2118 3542,2128 3519,2136 3500,2146 3481,2160 3462,2171 3448,2184 3433,2193 3419,2207 3411,2222 3400,2232 3396,2245 3391,2259 3386,2274 3386,2283 3386,2297 3391,2311 3396,2325 "
       style="stroke:#cc0000;stroke-width:8;stroke-linecap:butt;stroke-linejoin:round"
       id="polyline34" />
    <!-- Line -->
    <!--  polyline  -->
    <polyline
       points="3519,2453 3542,2467 3566,2481 3594,2496 3623,2510 3651,2524 3679,2538 3712,2552 3750,2562 3783,2576 3821,2591 3859,2604 3897,2618 3939,2628 3981,2642 4029,2656 4071,2666 4118,2680 4166,2689 4213,2703 4265,2713 4312,2722 4364,2732 4416,2746 4473,2755 4525,2765 4581,2774 4633,2784 4690,2788 4747,2798 4804,2807 4860,2812 4922,2823 4978,2826 5035,2836 5097,2840 5153,2845 5215,2850 5271,2855 5333,2859 5390,2865 5451,2869 5507,2869 5569,2873 5626,2873 5682,2878 5744,2878 5800,2878 5857,2878 5909,2878 5966,2878 6023,2878 6074,2873 6127,2873 6178,2873 6230,2869 6282,2865 6329,2865 6381,2859 6429,2855 6471,2850 6518,2845 6561,2836 6603,2831 6646,2826 6684,2817 6722,2812 6760,2803 6797,2793 6830,2784 6864,2780 6892,2770 6925,2760 6949,2751 6977,2737 7000,2727 7024,2718 7043,2708 7062,2695 7081,2685 7096,2670 7109,2661 7123,2647 7133,2637 7142,2623 7147,2609 7152,2595 7156,2585 7156,2571 "
       style="stroke:#cc0000;stroke-width:8;stroke-linecap:butt;stroke-linejoin:round"
       id="polyline36" />
    <!-- Line -->
    <!--  polyline  -->
    <polyline
       points="4539,1976 4487,1981 4430,1990 4379,1995 4326,2001 4279,2009 4227,2014 4180,2023 4133,2028 4086,2037 4038,2047 3996,2056 3953,2066 3911,2075 3874,2086 3835,2094 3797,2103 3759,2113 3727,2122 3693,2132 3665,2146 3632,2155 3608,2171 3581,2179 3556,2193 3533,2203 3514,2217 3496,2226 3476,2240 3462,2250 3448,2264 3433,2278 3424,2288 3415,2302 3411,2317 3405,2330 "
       style="stroke:#cc0000;stroke-width:8;stroke-linecap:butt;stroke-linejoin:round"
       id="polyline38" />
    <!-- Line -->
    <!--  polyline  -->
    <polyline
       points="4038,2661 4086,2670 4133,2680 4180,2685 4227,2695 4279,2699 4326,2708 4379,2713 4430,2718 4487,2727 4539,2732 4596,2737 4653,2741 4704,2746 4761,2746 4823,2751 4879,2755 4936,2755 4992,2760 5054,2760 5111,2760 5172,2765 5229,2765 5290,2765 5352,2765 5408,2765 5470,2760 5526,2760 5588,2760 5644,2755 5701,2755 5758,2751 5819,2746 5876,2746 5928,2741 5985,2737 6041,2732 6093,2727 6150,2718 6202,2713 6254,2708 6301,2699 6353,2695 6401,2685 6448,2680 6495,2670 6542,2661 6585,2651 6627,2642 6670,2634 6707,2623 6745,2614 6783,2604 6822,2595 6854,2585 6887,2576 6915,2562 6949,2552 6972,2538 7000,2529 7024,2514 7048,2506 7066,2491 7085,2481 7104,2467 7118,2458 7133,2445 7147,2429 7156,2420 7166,2406 7170,2392 7175,2377 7181,2368 7181,2354 7181,2340 "
       style="stroke:#cc0000;stroke-width:8;stroke-linecap:butt;stroke-linejoin:round"
       id="polyline40" />
    <!-- Line -->
    <!--  polyline  -->
    <polyline
       points="4071,2043 4029,2051 3981,2066 3939,2080 3897,2089 3859,2103 3821,2118 3783,2132 3750,2146 3712,2155 3679,2171 3651,2184 3623,2198 3594,2213 3566,2226 3542,2240 3519,2255 3500,2269 3481,2283 3462,2297 3448,2311 3433,2325 3419,2340 "
       style="stroke:#cc0000;stroke-width:8;stroke-linecap:butt;stroke-linejoin:round"
       id="polyline42" />
    <!-- Line -->
    <!--  polyline  -->
    <polyline
       points="4520,2732 4577,2732 4629,2732 4685,2732 4742,2732 4799,2732 4855,2732 4917,2727 4974,2727 5035,2722 5092,2722 5148,2718 5210,2713 5266,2708 5328,2703 5390,2699 5446,2695 5503,2689 5564,2680 5622,2676 5677,2666 5739,2661 5796,2651 5853,2642 5909,2637 5961,2628 6018,2618 6070,2609 6127,2600 6178,2585 6230,2576 6277,2566 6329,2557 6377,2543 6424,2533 6471,2519 6514,2510 6561,2496 6603,2481 6641,2472 6684,2458 6722,2445 6760,2429 6792,2415 6830,2406 6859,2392 6892,2377 6920,2363 6949,2349 6977,2335 7000,2321 7024,2307 7043,2292 7062,2278 7081,2264 7096,2250 7109,2236 7123,2222 7133,2207 7142,2193 7147,2179 7152,2165 7152,2151 7156,2136 7156,2122 7152,2113 7147,2099 7142,2086 "
       style="stroke:#cc0000;stroke-width:8;stroke-linecap:butt;stroke-linejoin:round"
       id="polyline44" />
    <!-- Line -->
    <!--  polyline  -->
    <polyline
       points="3670,2171 3637,2184 3604,2203 3575,2222 3547,2240 3523,2255 3500,2274 3476,2292 3457,2307 "
       style="stroke:#cc0000;stroke-width:8;stroke-linecap:butt;stroke-linejoin:round"
       id="polyline46" />
    <!-- Line -->
    <!--  polyline  -->
    <polyline
       points="4922,2732 4983,2722 5040,2718 5097,2708 5159,2703 5215,2695 5276,2685 5333,2676 5390,2666 5451,2656 5507,2647 5564,2634 5622,2623 5682,2609 5739,2600 5791,2585 5848,2571 5904,2557 5956,2543 6013,2529 6065,2514 6117,2500 6164,2487 6216,2472 6263,2458 6316,2439 6363,2425 6405,2406 6452,2392 6495,2377 6537,2360 6575,2340 6618,2325 6655,2307 6693,2292 6726,2274 6760,2255 6792,2240 6822,2222 6854,2203 6877,2184 6907,2171 6929,2151 6953,2132 6972,2118 6991,2099 7011,2086 7024,2066 7038,2051 7048,2033 7062,2018 7066,2001 7076,1985 7081,1966 7081,1952 7081,1939 7081,1924 7081,1910 7076,1897 7066,1881 7057,1867 7048,1854 "
       style="stroke:#cc0000;stroke-width:8;stroke-linecap:butt;stroke-linejoin:round"
       id="polyline48" />
    <!-- Line -->
    <!--  polyline  -->
    <polyline
       points="5252,2695 5314,2680 5370,2666 5427,2651 5484,2637 5541,2618 5597,2604 5654,2585 5711,2571 5763,2552 5819,2533 5871,2519 5923,2500 5975,2481 6027,2462 6074,2445 6127,2425 6174,2402 6221,2382 6268,2363 6311,2340 6359,2321 6401,2302 6438,2278 6481,2259 6518,2236 6556,2217 6594,2193 6627,2174 6660,2151 6693,2128 6722,2108 6750,2086 6779,2066 6802,2043 6826,2023 6844,2001 6868,1981 6887,1962 6901,1939 6915,1919 6929,1900 6939,1881 6949,1858 6958,1839 6963,1820 6967,1801 6972,1782 6972,1769 6967,1750 6967,1730 6963,1716 6953,1697 6944,1683 6934,1669 6925,1655 6911,1640 "
       style="stroke:#cc0000;stroke-width:8;stroke-linecap:butt;stroke-linejoin:round"
       id="polyline50" />
    <!-- Line -->
    <!--  polyline  -->
    <polyline
       points="5555,2618 5607,2600 5664,2576 5715,2557 5767,2533 5819,2514 5871,2491 5918,2467 5970,2445 6018,2420 6065,2396 6112,2373 6155,2349 6197,2321 6244,2297 6282,2274 6325,2245 6363,2222 6401,2198 6438,2171 6471,2146 6504,2118 6537,2094 6566,2070 6599,2043 6622,2018 6651,1990 6675,1966 6698,1943 6718,1914 6737,1891 6755,1867 6769,1844 6783,1815 6797,1792 6807,1769 6816,1744 6822,1725 6826,1702 6830,1678 6830,1659 6830,1636 6830,1617 6826,1593 6822,1574 6811,1555 6802,1537 6792,1518 6779,1503 6764,1485 6750,1466 6731,1451 6712,1437 6688,1423 "
       style="stroke:#cc0000;stroke-width:8;stroke-linecap:butt;stroke-linejoin:round"
       id="polyline52" />
    <!-- Line -->
    <!--  polyline  -->
    <polyline
       points="5753,2543 5805,2519 5853,2491 5900,2462 5947,2434 5989,2406 6037,2382 6079,2354 6122,2321 6159,2292 6197,2264 6235,2236 6274,2207 6311,2174 6344,2146 6377,2118 6405,2089 6433,2056 6462,2028 6490,2001 6514,1966 6537,1939 6556,1910 6575,1881 6594,1854 6613,1825 6627,1792 6637,1763 6651,1740 6660,1711 6665,1683 6675,1655 6675,1631 6679,1603 6679,1580 6679,1551 6675,1527 6670,1503 6660,1480 6655,1456 6641,1437 6633,1414 6618,1395 6603,1371 6585,1352 6566,1333 6548,1319 6523,1300 6500,1281 6476,1267 6448,1253 6419,1239 6386,1225 "
       style="stroke:#cc0000;stroke-width:8;stroke-linecap:butt;stroke-linejoin:round"
       id="polyline54" />
    <!-- Line -->
    <!--  polyline  -->
    <polyline
       points="5871,2487 5914,2453 5956,2425 5999,2392 6037,2360 6074,2325 6112,2292 6150,2259 6183,2226 6216,2193 6244,2160 6274,2128 6301,2094 6329,2061 6353,2028 6377,1995 6401,1962 6419,1929 6438,1897 6452,1862 6471,1829 6481,1796 6495,1763 6504,1735 6514,1702 6518,1669 6523,1640 6523,1607 6528,1580 6523,1551 6523,1522 6518,1495 6514,1466 6504,1437 6495,1409 6481,1385 6471,1362 6452,1333 6438,1310 6419,1287 6401,1267 6377,1245 6353,1225 6329,1206 6301,1187 6274,1168 6244,1149 6216,1135 6183,1117 6150,1102 6112,1088 6074,1078 6037,1064 "
       style="stroke:#cc0000;stroke-width:8;stroke-linecap:butt;stroke-linejoin:round"
       id="polyline56" />
    <!-- Line -->
    <!--  polyline  -->
    <polyline
       points="5994,2392 6032,2360 6065,2321 6093,2288 6127,2250 6155,2213 6178,2179 6207,2141 6230,2103 6254,2066 6274,2033 6292,1995 6311,1958 6325,1919 6339,1886 6348,1848 6363,1815 6367,1777 6377,1744 6381,1708 6381,1674 6386,1640 6386,1607 6381,1574 6377,1541 6372,1508 6367,1476 6359,1447 6344,1414 6334,1385 6320,1357 6301,1329 6282,1300 6263,1272 6244,1248 6221,1220 6197,1196 6170,1173 6141,1154 6112,1130 6079,1111 6051,1088 6018,1069 5981,1055 5942,1036 5904,1022 5866,1007 5824,993 5786,979 5744,971 5696,955 5654,951 5607,941 "
       style="stroke:#cc0000;stroke-width:8;stroke-linecap:butt;stroke-linejoin:round"
       id="polyline58" />
    <!-- Line -->
    <!--  polyline  -->
    <polyline
       points="6046,2335 6074,2292 6098,2255 6122,2217 6145,2179 6164,2136 6183,2099 6197,2061 6212,2023 6226,1981 6235,1943 6244,1905 6254,1867 6259,1829 6263,1792 6263,1754 6263,1716 6263,1678 6259,1640 6254,1603 6249,1570 6240,1532 6230,1499 6216,1466 6202,1434 6188,1400 6170,1366 6150,1338 6131,1306 6107,1277 6085,1248 6055,1220 6032,1192 5999,1168 5970,1140 5938,1117 5904,1092 5871,1075 5833,1050 5796,1032 5758,1013 5715,993 5677,974 5630,960 5588,946 5545,932 5498,918 5451,908 5403,899 5352,889 5304,880 5252,875 5201,870 5148,866 5097,861 "
       style="stroke:#cc0000;stroke-width:8;stroke-linecap:butt;stroke-linejoin:round"
       id="polyline60" />
    <!-- Line -->
    <!--  polyline  -->
    <polyline
       points="6055,2321 6074,2278 6093,2236 6107,2193 6122,2155 6136,2113 6145,2070 6155,2033 6159,1990 6164,1947 6170,1910 6170,1867 6170,1829 6164,1787 6164,1750 6155,1711 6150,1674 6141,1631 6127,1598 6117,1560 6098,1522 6085,1485 6065,1451 6046,1418 6023,1385 5999,1352 5975,1319 5947,1287 5918,1258 5890,1225 5857,1196 5824,1168 5791,1144 5753,1117 5715,1092 5677,1069 5640,1045 5597,1026 5555,1003 5512,984 5465,965 5418,951 5370,936 5323,918 5276,908 5224,894 5172,886 5120,875 5068,866 5016,856 4959,851 4907,847 4851,847 4794,843 4738,843 4681,843 4624,847 4567,847 4511,851 "
       style="stroke:#cc0000;stroke-width:8;stroke-linecap:butt;stroke-linejoin:round"
       id="polyline62" />
    <!-- Line -->
    <!--  polyline  -->
    <polyline
       points="6055,2311 6065,2269 6079,2226 6085,2184 6093,2141 6098,2099 6098,2056 6103,2014 6098,1971 6098,1929 6093,1886 6085,1848 6079,1806 6070,1763 6055,1725 6041,1688 6027,1645 6008,1607 5989,1570 5970,1532 5947,1499 5923,1461 5900,1428 5871,1391 5843,1357 5811,1324 5777,1296 5744,1262 5711,1234 5673,1206 5635,1177 5597,1149 5555,1121 5512,1097 5470,1075 5422,1050 5380,1032 5333,1013 5286,990 5233,974 5186,955 5134,941 5082,928 5030,913 4974,903 4922,889 4865,886 4813,875 4756,870 4700,861 4643,861 4581,856 4525,856 4468,856 4411,856 4350,861 4293,866 4233,870 4175,875 4118,886 4057,894 4001,903 3944,918 3882,932 "
       style="stroke:#cc0000;stroke-width:8;stroke-linecap:butt;stroke-linejoin:round"
       id="polyline64" />
    <!-- Line -->
    <!--  polyline  -->
    <polyline
       points="6051,2311 6055,2264 6060,2222 6060,2179 6060,2136 6055,2094 6051,2051 6046,2009 6037,1966 6027,1924 6013,1881 5999,1839 5985,1796 5966,1759 5947,1716 5928,1678 5904,1640 5881,1603 5853,1565 5824,1527 5796,1489 5767,1456 5734,1423 5696,1385 5664,1352 5626,1324 5588,1291 5550,1262 5507,1234 5465,1206 5418,1177 5375,1154 5328,1130 5281,1107 5233,1083 5181,1059 5134,1040 5082,1022 5030,1003 4974,990 4922,974 4865,960 4813,946 4756,936 4700,928 4643,918 4586,913 4525,908 4468,903 4411,899 4350,899 4293,899 4233,899 4175,899 4114,903 4057,908 3996,918 3939,922 3878,932 3821,946 3764,955 3703,971 3646,984 3589,998 3538,1017 3481,1036 3424,1055 3372,1075 3320,1097 3268,1121 3216,1144 3164,1168 3118,1196 "
       style="stroke:#cc0000;stroke-width:8;stroke-linecap:butt;stroke-linejoin:round"
       id="polyline66" />
    <!-- Line -->
    <!--  polyline  -->
    <polyline
       points="6046,2311 6041,2264 6037,2222 6032,2179 6023,2136 6013,2094 5999,2051 5985,2009 5970,1966 5952,1924 5933,1881 5914,1844 5890,1801 5866,1763 5838,1721 5815,1683 5781,1645 5753,1607 5720,1570 5687,1537 5649,1499 5611,1466 5574,1434 5537,1400 5493,1371 5451,1338 5408,1310 5361,1281 5314,1253 5266,1229 5219,1202 5167,1177 5120,1154 5068,1135 5016,1111 4959,1092 4907,1078 4851,1059 4794,1045 4742,1032 4685,1017 4624,1007 4567,993 4511,990 4454,979 4392,974 4337,971 4275,965 4218,960 4156,960 4095,960 4038,965 3977,971 3920,974 3859,979 3802,990 3745,993 3689,1007 3627,1017 3570,1032 3519,1045 3462,1059 3405,1078 3353,1092 3296,1111 3244,1135 3193,1154 3145,1177 3093,1202 3046,1229 2999,1253 2952,1281 2904,1310 2862,1338 2819,1371 2777,1400 2739,1434 2701,1466 2663,1499 2626,1537 2593,1570 2559,1607 2531,1645 2498,1683 2474,1721 2446,1763 2423,1801 2399,1844 2381,1881 2361,1924 2342,1966 2328,2009 2314,2051 2300,2094 2290,2136 2281,2179 2276,2222 2271,2264 2267,2311 2267,2354 2267,2396 2271,2445 2276,2487 2281,2529 2290,2571 2300,2614 2314,2656 2328,2699 2342,2741 2361,2784 2381,2826 2399,2865 2423,2908 2446,2944 2474,2987 2498,3025 2531,3062 2559,3100 2593,3139 2626,3171 2663,3209 2701,3243 2739,3275 2777,3308 2819,3336 2862,3371 2904,3398 2952,3426 2999,3455 3046,3478 3093,3507 3145,3530 3193,3554 "
       style="stroke:#cc0000;stroke-width:8;stroke-linecap:butt;stroke-linejoin:round"
       id="polyline68" />
    <!-- Line -->
    <!--  polyline  -->
    <polyline
       points="6037,2311 6027,2269 6013,2226 5999,2184 5985,2141 5966,2099 5947,2056 5928,2014 5904,1971 5881,1933 5857,1891 5829,1854 5800,1812 5767,1773 5734,1735 5701,1697 5664,1665 5630,1626 5592,1593 5550,1555 5507,1522 5465,1489 5422,1461 5380,1428 5333,1400 5286,1371 5238,1343 5186,1319 5134,1291 5087,1267 5035,1245 4978,1220 4927,1202 4870,1182 4818,1163 4761,1144 4704,1130 4648,1117 4591,1102 4530,1092 4473,1078 4411,1075 4355,1064 4298,1055 4237,1050 4180,1050 4118,1045 4057,1045 4001,1045 3944,1045 3882,1050 3826,1055 3770,1059 3707,1064 3651,1075 3594,1083 3538,1092 3485,1107 3429,1121 3377,1135 3320,1154 3268,1168 3216,1187 3169,1206 3118,1229 3070,1253 3022,1277 2975,1300 2933,1324 2886,1352 2844,1381 2805,1409 2763,1437 2725,1470 2687,1503 2654,1532 2616,1570 2588,1603 2555,1636 2527,1674 2498,1711 2470,1750 2446,1787 2423,1825 2404,1862 2385,1905 2366,1943 2352,1985 2338,2028 2323,2070 2314,2113 2304,2155 2300,2198 2296,2240 2296,2283 2290,2325 2290,2368 2296,2411 2300,2458 2304,2500 2314,2543 2323,2585 2338,2628 2352,2670 2366,2713 2385,2755 2404,2798 2423,2840 2446,2883 2470,2921 2498,2963 2522,3001 2555,3044 2583,3081 2616,3119 2649,3158 2687,3190 2725,3228 2763,3261 2801,3299 2844,3332 2886,3365 2928,3393 2975,3426 3018,3455 3065,3483 3118,3511 3164,3540 3216,3563 3268,3587 3320,3611 3372,3634 3424,3653 3481,3672 3538,3691 3589,3710 3646,3724 3703,3738 3764,3752 3821,3762 "
       style="stroke:#cc0000;stroke-width:8;stroke-linecap:butt;stroke-linejoin:round"
       id="polyline70" />
    <!-- Line -->
    <!--  polyline  -->
    <polyline
       points="6027,2311 6008,2269 5989,2226 5970,2188 5947,2146 5923,2103 5896,2066 5866,2023 5838,1985 5811,1943 5777,1905 5744,1867 5707,1829 5673,1792 5635,1759 5592,1721 5555,1688 5512,1655 5465,1623 5422,1588 5375,1555 5328,1527 5281,1499 5233,1470 5181,1442 5130,1414 5077,1391 5026,1366 4974,1343 4917,1319 4865,1300 4808,1281 4752,1262 4696,1245 4638,1229 4581,1215 4525,1202 4464,1187 4407,1177 4350,1168 4289,1160 4233,1154 4170,1149 4114,1144 4057,1140 3996,1140 3939,1140 3882,1140 3826,1144 3764,1144 3707,1154 3655,1160 3599,1168 3542,1173 3490,1187 3433,1196 3381,1211 3330,1225 3282,1239 3230,1258 3183,1272 3131,1296 3084,1314 3041,1333 2994,1357 2952,1381 2909,1404 2871,1434 2829,1461 2791,1489 2753,1518 2720,1546 2687,1580 2654,1607 2626,1640 2593,1674 2570,1711 2541,1744 2517,1782 2493,1815 2474,1854 2455,1891 2437,1929 2423,1971 2408,2009 2399,2047 2385,2089 2381,2132 2370,2171 2366,2213 2366,2255 2366,2297 2366,2340 2366,2382 2370,2425 2381,2467 2389,2510 2399,2552 2408,2595 2423,2637 2437,2680 2455,2722 2474,2765 2493,2803 2517,2845 2541,2888 2570,2925 2597,2969 2626,3006 2654,3048 2687,3086 2720,3124 2759,3162 2796,3199 2833,3233 2871,3270 2914,3303 2956,3336 2999,3371 3041,3403 3089,3436 3137,3464 3183,3492 3230,3521 3282,3549 3334,3577 3386,3602 3438,3625 3490,3648 3547,3672 3599,3691 3655,3710 3712,3729 3770,3748 3826,3762 3882,3776 3944,3791 4001,3804 4057,3814 4118,3823 4175,3834 4233,3837 4293,3842 4350,3847 4411,3851 4468,3851 "
       style="stroke:#cc0000;stroke-width:8;stroke-linecap:butt;stroke-linejoin:round"
       id="polyline72" />
    <!-- Line -->
    <!--  polyline  -->
    <polyline
       points="6032,2349 6013,2307 5989,2269 5961,2226 5933,2188 5904,2151 5876,2108 5843,2070 5811,2033 5772,1995 5734,1958 5696,1924 5659,1886 5616,1854 5574,1815 5531,1782 5489,1750 5441,1716 5394,1688 5348,1655 5300,1626 5248,1598 5201,1570 5148,1541 5097,1518 5044,1495 4988,1470 4936,1447 4879,1423 4823,1404 4766,1385 4709,1366 4653,1352 4596,1333 4539,1319 4482,1306 4426,1296 4364,1287 4307,1277 4251,1267 4194,1258 4133,1253 4076,1248 4019,1245 3963,1245 3906,1245 3849,1245 3792,1245 3736,1248 3685,1253 3627,1258 3575,1267 3523,1277 3471,1287 3419,1296 3372,1306 3320,1319 3273,1333 3226,1352 3179,1366 3137,1385 3089,1404 3046,1428 3008,1447 2966,1470 2928,1495 2890,1518 2852,1546 2819,1570 2786,1598 2753,1626 2725,1659 2697,1688 2668,1721 2644,1750 2621,1782 2602,1820 2578,1854 2559,1886 2545,1924 2531,1962 2517,1995 2508,2033 2498,2070 2489,2113 2485,2151 2479,2188 2474,2232 2474,2269 2479,2311 2479,2349 2485,2392 2493,2429 2503,2472 2512,2514 2522,2557 2536,2595 2555,2637 2570,2680 2588,2718 2612,2760 2635,2803 2659,2840 2682,2883 2711,2921 2739,2959 2772,3001 2805,3039 2838,3077 2871,3114 2909,3152 2948,3185 2985,3223 3027,3256 3070,3294 3112,3328 3155,3360 3202,3388 3249,3422 3296,3455 3344,3483 3396,3511 3448,3540 3496,3563 3547,3592 3604,3615 3655,3639 3712,3662 3764,3681 3821,3706 3878,3724 3934,3743 3991,3757 4048,3776 4104,3791 4161,3799 4222,3814 4279,3823 4337,3834 4392,3842 4454,3851 4511,3856 4567,3861 4624,3861 4681,3866 4738,3866 4794,3866 4851,3861 4907,3861 4959,3856 5016,3851 "
       style="stroke:#cc0000;stroke-width:8;stroke-linecap:butt;stroke-linejoin:round"
       id="polyline74" />
    <!-- Line -->
    <!--  polyline  -->
    <polyline
       points="6018,2335 5989,2297 5961,2259 5928,2222 5896,2184 5857,2151 5819,2113 5781,2075 5744,2043 5701,2004 5659,1971 5616,1939 5574,1905 5526,1872 5479,1844 5433,1812 5385,1782 5337,1754 5286,1725 5233,1697 5181,1669 5130,1645 5077,1617 5021,1593 4970,1574 4912,1551 4855,1532 4799,1508 4742,1495 4685,1476 4629,1456 4572,1442 4515,1428 4459,1414 4402,1404 4345,1395 4289,1385 4227,1376 4170,1366 4114,1362 4062,1357 4005,1357 3948,1352 3892,1352 3840,1352 3783,1352 3731,1357 3679,1362 3627,1366 3575,1371 3528,1381 3476,1391 3429,1400 3381,1409 3334,1423 3292,1437 3249,1451 3202,1466 3164,1485 3122,1503 3084,1522 3046,1541 3008,1565 2975,1584 2942,1607 2909,1631 2881,1659 2848,1683 2824,1711 2796,1740 2772,1769 2748,1796 2730,1829 2711,1858 2692,1891 2678,1924 2663,1958 2649,1990 2640,2023 2630,2061 2626,2094 2621,2132 2616,2171 2616,2207 2616,2240 2616,2278 2621,2321 2626,2360 2635,2396 2644,2434 2654,2472 2668,2510 2682,2552 2697,2591 2716,2628 2734,2670 2759,2708 2781,2746 2805,2784 2833,2826 2862,2865 2890,2902 2919,2940 2952,2977 2985,3015 3022,3048 3060,3086 3098,3124 3137,3158 3179,3195 3222,3228 3264,3261 3307,3294 3353,3328 3400,3355 3448,3388 3496,3417 3542,3445 3594,3474 3646,3502 3698,3530 3750,3554 3802,3577 3859,3602 3911,3625 3967,3648 4024,3667 4081,3687 4137,3706 4194,3724 4251,3743 4307,3757 4364,3771 4422,3785 4477,3795 4534,3804 4591,3814 4653,3823 4709,3828 4766,3837 4818,3842 4874,3842 4931,3847 4988,3847 5040,3847 5097,3847 5148,3842 5201,3837 5252,3834 5304,3828 5352,3818 5403,3809 5451,3799 5498,3791 "
       style="stroke:#cc0000;stroke-width:8;stroke-linecap:butt;stroke-linejoin:round"
       id="polyline76" />
    <!-- Line -->
    <!--  polyline  -->
    <polyline
       points="3840,941 3792,951 3750,955 3703,971 3660,979 3623,993 3581,1007 3542,1022 3504,1036 3466,1055 3429,1069 3396,1088 3367,1111 3334,1130 3307,1154 3278,1173 3249,1196 3226,1220 3202,1248 3183,1272 3164,1300 3145,1329 3126,1357 3112,1385 3103,1414 3089,1447 3079,1476 3075,1508 3070,1541 3065,1574 3060,1607 3060,1640 3065,1674 3065,1708 3070,1744 3079,1777 3084,1815 3098,1848 3107,1886 3122,1919 3137,1958 3155,1995 3174,2033 3193,2066 3216,2103 3240,2141 3268,2179 3292,2213 3320,2250 3353,2288 3381,2321 3415,2360 3453,2392 "
       style="stroke:#0000cc;stroke-width:8;stroke-linecap:butt;stroke-linejoin:round"
       id="polyline78" />
    <!-- Line -->
    <!--  polyline  -->
    <polyline
       points="3411,1064 3372,1078 3334,1088 3296,1102 3264,1117 3230,1135 3202,1149 3174,1168 3145,1187 3118,1206 3093,1225 3070,1245 3046,1267 3027,1287 3008,1310 2994,1333 2975,1362 2966,1385 2952,1409 2942,1437 2933,1466 2928,1495 2923,1522 2923,1551 2919,1580 2923,1607 2923,1640 2928,1669 2933,1702 2942,1735 2952,1763 2966,1796 2975,1829 2994,1862 3008,1897 3027,1929 3046,1962 3070,1995 3093,2028 3118,2061 3145,2094 3174,2128 3202,2160 3230,2193 3264,2226 3296,2259 3334,2292 3372,2325 3411,2360 3448,2392 3490,2425 3533,2453 3575,2487 "
       style="stroke:#0000cc;stroke-width:8;stroke-linecap:butt;stroke-linejoin:round"
       id="polyline80" />
    <!-- Line -->
    <!--  polyline  -->
    <polyline
       points="3060,1225 3027,1239 2999,1253 2970,1267 2948,1281 2923,1300 2900,1319 2881,1333 2862,1352 2844,1371 2829,1395 2815,1414 2805,1437 2791,1456 2786,1480 2777,1503 2772,1527 2767,1551 2767,1580 2767,1603 2772,1631 2772,1655 2781,1683 2786,1711 2796,1740 2810,1763 2819,1792 2833,1825 2852,1854 2871,1881 2890,1910 2909,1939 2933,1966 2956,2001 2985,2028 3013,2056 3041,2089 3070,2118 3103,2146 3137,2174 3174,2207 3211,2236 3249,2264 3287,2292 3325,2321 3367,2354 3411,2382 3457,2406 3500,2434 3547,2462 3594,2491 3641,2519 3693,2543 "
       style="stroke:#0000cc;stroke-width:8;stroke-linecap:butt;stroke-linejoin:round"
       id="polyline82" />
    <!-- Line -->
    <!--  polyline  -->
    <polyline
       points="2759,1423 2734,1437 2716,1451 2697,1466 2682,1485 2668,1503 2654,1518 2644,1537 2635,1555 2626,1574 2621,1593 2616,1617 2616,1636 2616,1659 2616,1678 2621,1702 2626,1725 2630,1744 2640,1769 2649,1792 2663,1815 2678,1844 2692,1867 2711,1891 2730,1914 2748,1943 2772,1966 2796,1990 2824,2018 2848,2043 2881,2070 2909,2094 2942,2118 2975,2146 3008,2171 3046,2198 3084,2222 3122,2245 3164,2274 3202,2297 3249,2321 3292,2349 3334,2373 3381,2396 3429,2420 3476,2445 3528,2467 3575,2491 3627,2514 3679,2533 3731,2557 3783,2576 3840,2600 3892,2618 "
       style="stroke:#0000cc;stroke-width:8;stroke-linecap:butt;stroke-linejoin:round"
       id="polyline84" />
    <!-- Line -->
    <!--  polyline  -->
    <polyline
       points="2536,1640 2522,1655 2512,1669 2503,1683 2493,1697 2485,1716 2479,1730 2479,1750 2474,1769 2474,1782 2479,1801 2485,1820 2489,1839 2498,1858 2508,1881 2517,1900 2531,1919 2545,1939 2559,1962 2578,1981 2602,2001 2621,2023 2644,2043 2668,2066 2697,2086 2725,2108 2753,2128 2786,2151 2819,2174 2852,2193 2890,2217 2928,2236 2966,2259 3008,2278 3046,2302 3089,2321 3137,2340 3179,2363 3226,2382 3273,2402 3320,2425 3372,2445 3419,2462 3471,2481 3523,2500 3575,2519 3627,2533 3685,2552 3736,2571 3792,2585 3849,2604 3906,2618 3963,2637 4019,2651 4076,2666 4133,2680 4194,2695 "
       style="stroke:#0000cc;stroke-width:8;stroke-linecap:butt;stroke-linejoin:round"
       id="polyline86" />
    <!-- Line -->
    <!--  polyline  -->
    <polyline
       points="2399,1854 2389,1867 2381,1881 2370,1897 2366,1910 2366,1924 2366,1939 2366,1952 2366,1966 2370,1985 2381,2001 2385,2018 2399,2033 2408,2051 2423,2066 2437,2086 2455,2099 2474,2118 2493,2132 2517,2151 2541,2171 2570,2184 2593,2203 2626,2222 2654,2240 2687,2255 2720,2274 2753,2292 2791,2307 2829,2325 2871,2340 2909,2360 2952,2377 2994,2392 3041,2406 3084,2425 3131,2439 3183,2458 3230,2472 3282,2487 3330,2500 3381,2514 3433,2529 3490,2543 3542,2557 3599,2571 3655,2585 3707,2600 3764,2609 3826,2623 3882,2634 3939,2647 3996,2656 4057,2666 4114,2676 4170,2685 4233,2695 4289,2703 4350,2708 4407,2718 4464,2722 4525,2732 "
       style="stroke:#0000cc;stroke-width:8;stroke-linecap:butt;stroke-linejoin:round"
       id="polyline88" />
    <!-- Line -->
    <!--  polyline  -->
    <polyline
       points="5989,2307 5970,2292 5947,2274 5923,2255 5900,2240 5871,2222 5843,2203 5811,2184 5777,2171 "
       style="stroke:#0000cc;stroke-width:8;stroke-linecap:butt;stroke-linejoin:round"
       id="polyline90" />
    <!-- Line -->
    <!--  polyline  -->
    <polyline
       points="2304,2086 2300,2099 2296,2113 2290,2122 2290,2136 2296,2151 2296,2165 2300,2179 2304,2193 2314,2207 2323,2222 2338,2236 2352,2250 2366,2264 2385,2278 2404,2292 2423,2307 2446,2321 2470,2335 2498,2349 2527,2363 2555,2377 2588,2392 2616,2406 2654,2415 2687,2429 2725,2445 2763,2458 2805,2472 2844,2481 2886,2496 2933,2510 2975,2519 3022,2533 3070,2543 3118,2557 3169,2566 3216,2576 3268,2585 3320,2600 3377,2609 3429,2618 3485,2628 3538,2637 3594,2642 3651,2651 3707,2661 3770,2666 3826,2676 3882,2680 3944,2689 4001,2695 4057,2699 4118,2703 4180,2708 4237,2713 4298,2718 4355,2722 4411,2722 4473,2727 4530,2727 4591,2732 4648,2732 4704,2732 4761,2732 4818,2732 4870,2732 4927,2732 "
       style="stroke:#0000cc;stroke-width:8;stroke-linecap:butt;stroke-linejoin:round"
       id="polyline92" />
    <!-- Line -->
    <!--  polyline  -->
    <polyline
       points="6027,2340 6013,2325 5999,2311 5985,2297 5966,2283 5947,2269 5928,2255 5904,2240 5881,2226 5853,2213 5824,2198 5796,2184 5767,2171 5734,2155 5696,2146 5664,2132 5626,2118 5588,2103 5550,2089 5507,2080 5465,2066 5418,2051 5375,2043 "
       style="stroke:#0000cc;stroke-width:8;stroke-linecap:butt;stroke-linejoin:round"
       id="polyline94" />
    <!-- Line -->
    <!--  polyline  -->
    <polyline
       points="2267,2340 2267,2354 2267,2368 2271,2377 2276,2392 2281,2406 2290,2420 2300,2429 2314,2445 2328,2458 2342,2467 2361,2481 2381,2491 2399,2506 2423,2514 2446,2529 2474,2538 2498,2552 2531,2562 2559,2576 2593,2585 2626,2595 2663,2604 2701,2614 2739,2623 2777,2634 2819,2642 2862,2651 2904,2661 2952,2670 2999,2680 3046,2685 3093,2695 3145,2699 3193,2708 3244,2713 3296,2718 3353,2727 3405,2732 3462,2737 3519,2741 3570,2746 3627,2746 3689,2751 3745,2755 3802,2755 3859,2760 3920,2760 3977,2760 4038,2765 4095,2765 4156,2765 4218,2765 4275,2765 4337,2760 4392,2760 4454,2760 4511,2755 4567,2755 4624,2751 4685,2746 4742,2746 4794,2741 4851,2737 4907,2732 4959,2727 5016,2718 5068,2713 5120,2708 5167,2699 5219,2695 5266,2685 5314,2680 5361,2670 5408,2661 "
       style="stroke:#0000cc;stroke-width:8;stroke-linecap:butt;stroke-linejoin:round"
       id="polyline96" />
    <!-- Line -->
    <!--  polyline  -->
    <polyline
       points="6041,2330 6037,2317 6032,2302 6023,2288 6013,2278 5999,2264 5985,2250 5970,2240 5952,2226 5933,2217 5914,2203 5890,2193 5866,2179 5838,2171 5815,2155 5781,2146 5753,2132 5720,2122 5687,2113 5649,2103 5611,2094 5574,2086 5537,2075 5493,2066 5451,2056 5408,2047 5361,2037 5314,2028 5266,2023 5219,2014 5167,2009 5120,2001 5068,1995 5016,1990 4959,1981 4907,1976 "
       style="stroke:#0000cc;stroke-width:8;stroke-linecap:butt;stroke-linejoin:round"
       id="polyline98" />
    <!-- Line -->
    <!--  polyline  -->
    <polyline
       points="2290,2571 2290,2585 2296,2595 2300,2609 2304,2623 2314,2637 2323,2647 2338,2661 2352,2670 2366,2685 2385,2695 2404,2708 2423,2718 2446,2727 2470,2737 2498,2751 2522,2760 2555,2770 2583,2780 2616,2784 2649,2793 2687,2803 2725,2812 2763,2817 2801,2826 2844,2831 2886,2836 2928,2845 2975,2850 3018,2855 3065,2859 3118,2865 3164,2865 3216,2869 3268,2873 3320,2873 3372,2873 3424,2878 3481,2878 3538,2878 3589,2878 3646,2878 3703,2878 3764,2878 3821,2873 3878,2873 3939,2869 3996,2869 4057,2865 4114,2859 4175,2855 4233,2850 4293,2845 4350,2840 4411,2836 4468,2826 4525,2823 4586,2812 4643,2807 4700,2798 4756,2788 4813,2784 4865,2774 4922,2765 4974,2755 5030,2746 5082,2732 5134,2722 5181,2713 5233,2703 5281,2689 5328,2680 5375,2666 5418,2656 5465,2642 5507,2628 5550,2618 5588,2604 5626,2591 5664,2576 5696,2562 5734,2552 5767,2538 5796,2524 5824,2510 5853,2496 5881,2481 5904,2467 5928,2453 "
       style="stroke:#0000cc;stroke-width:8;stroke-linecap:butt;stroke-linejoin:round"
       id="polyline100" />
    <!-- Line -->
    <!--  polyline  -->
    <polyline
       points="6051,2325 6055,2311 6060,2297 6060,2283 6060,2274 6055,2259 6051,2245 6046,2232 6037,2222 6027,2207 6013,2193 5999,2184 5985,2171 5966,2160 5947,2146 5928,2136 5904,2128 5881,2118 5857,2103 5829,2094 5800,2086 5767,2075 5734,2070 5701,2061 5664,2051 5630,2043 5592,2037 5550,2028 5507,2023 5465,2018 5422,2014 5380,2004 5333,2001 5286,1995 5238,1995 5186,1990 5134,1985 5087,1985 5035,1981 4978,1981 4927,1976 4870,1976 4818,1976 4761,1976 4704,1976 4648,1976 4591,1976 4530,1981 4473,1981 "
       style="stroke:#0000cc;stroke-width:8;stroke-linecap:butt;stroke-linejoin:round"
       id="polyline102" />
    <!-- Line -->
    <!--  polyline  -->
    <polyline
       points="2366,2798 2370,2812 2381,2826 2389,2840 2399,2855 2408,2869 2423,2883 2437,2892 2455,2908 2474,2916 2493,2930 2517,2940 2541,2950 2570,2959 2597,2969 2626,2977 2654,2987 2687,2992 2720,3001 2759,3006 2796,3015 2833,3020 2871,3025 2914,3029 2956,3034 2999,3039 3041,3044 3089,3044 3137,3048 3183,3048 3230,3048 3282,3048 3334,3048 3386,3048 3438,3048 3490,3048 3547,3044 3599,3044 3655,3039 3712,3034 3770,3029 3826,3025 3882,3020 3944,3015 4001,3006 4057,3001 4118,2992 4175,2987 4233,2977 4293,2969 4350,2959 4411,2950 4468,2940 4525,2930 4581,2916 4643,2908 4700,2892 4756,2883 4813,2869 4865,2855 4922,2840 4974,2826 5030,2812 5082,2798 5134,2784 5186,2770 5233,2755 5286,2741 5333,2722 5380,2708 5422,2689 5470,2676 5512,2661 5555,2642 5597,2623 5635,2609 5673,2591 5711,2576 5744,2557 5777,2538 5811,2524 5843,2506 5871,2487 5900,2467 5923,2453 5947,2434 5970,2415 5989,2402 6008,2382 6027,2368 6041,2349 6055,2335 6070,2317 6079,2302 6085,2283 6093,2269 6098,2250 6098,2236 6103,2222 6098,2207 6098,2193 6093,2179 6085,2165 6079,2151 6065,2136 6055,2122 6041,2108 6027,2099 6008,2086 5989,2075 5970,2061 5947,2051 5923,2043 5896,2033 5866,2023 5838,2014 5811,2004 5777,2001 5744,1990 5707,1985 5673,1976 5635,1971 5592,1966 5555,1962 5512,1958 5465,1952 5422,1947 5375,1947 5328,1943 5281,1943 5233,1943 5181,1943 5130,1943 5077,1943 5026,1943 4974,1943 4917,1947 4865,1947 4808,1952 4752,1958 4696,1962 4638,1966 4581,1971 4525,1976 4464,1985 4407,1990 4350,2001 4289,2004 4233,2014 4170,2023 4114,2033 "
       style="stroke:#0000cc;stroke-width:8;stroke-linecap:butt;stroke-linejoin:round"
       id="polyline104" />
    <!-- Line -->
    <!--  polyline  -->
    <polyline
       points="2493,3012 2503,3025 2512,3039 2522,3054 2536,3067 2555,3081 2570,3097 2588,3110 2612,3124 2635,3133 2659,3143 2682,3158 2711,3166 2739,3176 2772,3185 2805,3190 2838,3199 2871,3204 2909,3214 2948,3218 2985,3223 3027,3228 3070,3233 3112,3233 3155,3237 3202,3237 3249,3237 3296,3237 3344,3237 3396,3237 3448,3237 3496,3233 3547,3228 3604,3228 3655,3223 3712,3218 3764,3209 3821,3204 3878,3195 3934,3190 3991,3181 4048,3171 4104,3162 4161,3152 4222,3143 4279,3129 4337,3119 4392,3105 4454,3091 4511,3081 4567,3067 4624,3054 4681,3034 4738,3020 4794,3006 4851,2987 4907,2973 4959,2954 5016,2935 5068,2916 5120,2902 5172,2883 5224,2865 5276,2845 5323,2823 5370,2803 5418,2784 5465,2765 5512,2741 5555,2722 5597,2699 5640,2680 5677,2656 5715,2637 5753,2614 5791,2595 5824,2571 5857,2552 5890,2529 5918,2510 5947,2487 5975,2467 5999,2445 6023,2425 6046,2402 6065,2382 6085,2360 6098,2340 6117,2321 6127,2302 6141,2278 6150,2259 6155,2240 6164,2222 6164,2203 6170,2184 6170,2171 6170,2151 6164,2132 6159,2118 6155,2099 6145,2086 6136,2070 6122,2051 6107,2037 6093,2023 6074,2014 6055,2001 6032,1985 6013,1976 5989,1966 5961,1952 5933,1943 5904,1933 5876,1924 5843,1919 5811,1910 5772,1905 5734,1897 5696,1891 5659,1886 5616,1881 5574,1877 5531,1877 5489,1872 5441,1872 5394,1872 5348,1872 5300,1872 5248,1872 5201,1872 5148,1877 5097,1881 5044,1881 4988,1886 4936,1891 4879,1900 4823,1905 4766,1910 4709,1919 4653,1929 4596,1939 4539,1947 4482,1958 4426,1966 4364,1981 4307,1990 4251,2004 4194,2014 4133,2028 4076,2043 4019,2056 3963,2070 3906,2089 3849,2103 3792,2122 3736,2136 "
       style="stroke:#0000cc;stroke-width:8;stroke-linecap:butt;stroke-linejoin:round"
       id="polyline106" />
    <!-- Line -->
    <!--  polyline  -->
    <polyline
       points="2668,3204 2682,3223 2697,3243 2716,3256 2734,3270 2759,3286 2781,3299 2805,3313 2833,3322 2862,3336 2890,3346 2919,3355 2952,3365 2985,3374 3022,3384 3060,3388 3098,3398 3137,3403 3179,3407 3222,3413 3264,3413 3307,3417 3353,3417 3400,3417 3448,3417 3496,3417 3542,3417 3594,3413 3646,3413 3698,3407 3750,3403 3802,3398 3859,3388 3911,3384 3967,3374 4024,3365 4081,3355 4137,3346 4194,3336 4251,3322 4307,3308 4364,3299 4422,3286 4477,3270 4534,3251 4591,3237 4653,3223 4709,3204 4766,3185 4818,3166 4874,3147 4931,3129 4988,3110 5040,3091 5097,3067 5148,3048 5201,3025 5252,3006 5304,2982 5352,2959 5403,2935 5451,2911 5498,2888 5545,2865 5588,2840 5630,2812 5677,2788 5715,2765 5758,2737 5796,2713 5833,2689 5871,2661 5904,2637 5938,2609 5970,2585 5999,2557 6032,2533 6055,2510 6085,2481 6107,2458 6131,2429 6150,2406 6170,2382 6188,2360 6202,2330 6216,2307 6230,2283 6240,2259 6249,2236 6254,2213 6259,2193 6263,2171 6263,2146 6263,2128 6263,2108 6259,2086 6254,2066 6244,2047 6235,2028 6226,2009 6212,1990 6197,1976 6183,1958 6164,1943 6145,1929 6122,1914 6098,1900 6074,1886 6046,1877 6018,1862 5989,1854 5961,1844 5928,1834 5896,1825 5857,1815 5819,1812 5781,1801 5744,1796 5701,1792 5659,1787 5616,1787 5574,1782 5526,1782 5479,1782 5433,1782 5385,1782 5337,1782 5286,1787 5233,1787 5181,1792 5130,1796 5077,1801 5021,1812 4970,1815 4912,1825 4855,1834 4799,1844 4742,1854 4685,1862 4629,1877 4572,1891 4515,1900 4459,1914 4402,1929 4345,1947 4289,1962 4227,1976 4170,1995 4114,2014 4062,2033 4005,2051 3948,2070 3892,2089 3840,2108 3783,2132 3731,2151 3679,2174 3627,2193 "
       style="stroke:#0000cc;stroke-width:8;stroke-linecap:butt;stroke-linejoin:round"
       id="polyline108" />
    <!-- Line -->
    <!--  polyline  -->
    <polyline
       points="2900,3388 2923,3407 2948,3426 2970,3440 2999,3455 3027,3469 3060,3483 3089,3497 3122,3507 3160,3517 3193,3525 3230,3535 3268,3544 3311,3554 3349,3559 3391,3563 3438,3568 3481,3573 3528,3573 3575,3577 3623,3577 3670,3577 3722,3573 3770,3573 3821,3568 3874,3563 3925,3559 3977,3554 4033,3549 4086,3540 4142,3530 4199,3521 4255,3511 4307,3502 4364,3488 4422,3474 4477,3464 4534,3450 4591,3432 4648,3417 4704,3398 4761,3379 4818,3365 4874,3346 4931,3322 4988,3303 5040,3280 5097,3261 5148,3237 5205,3214 5257,3190 5309,3166 5361,3143 5413,3114 5460,3091 5512,3062 5560,3039 5607,3012 5654,2982 5696,2954 5744,2925 5786,2897 5824,2869 5866,2840 5904,2812 5942,2784 5981,2755 6018,2722 6051,2695 6079,2666 6112,2634 6141,2604 6170,2576 6197,2548 6221,2514 6244,2487 6263,2458 6282,2429 6301,2402 6320,2368 6334,2340 6344,2311 6359,2283 6367,2259 6372,2232 6377,2203 6381,2179 6386,2151 6386,2128 6381,2099 6381,2075 6377,2051 6367,2028 6363,2004 6348,1985 6339,1962 6325,1943 6311,1919 6292,1900 6274,1881 6254,1862 6230,1848 6207,1829 6178,1815 6155,1801 6127,1787 6093,1773 6065,1759 6032,1750 5994,1740 5961,1730 5923,1721 5885,1711 5843,1702 5805,1697 5763,1692 5715,1688 5673,1683 5626,1683 5579,1678 5531,1678 5484,1678 5433,1683 5385,1683 5333,1688 5281,1688 5229,1692 5172,1702 5120,1708 5063,1716 5012,1725 4955,1735 4898,1744 4841,1754 4789,1769 4733,1777 4676,1792 4619,1806 4563,1825 4507,1839 4444,1858 4392,1872 4337,1891 4279,1910 4222,1933 4166,1952 4109,1971 4057,1995 4001,2018 3948,2043 3897,2066 3844,2089 3792,2113 3741,2136 3693,2165 3641,2188 3594,2217 3547,2245 3500,2274 "
       style="stroke:#0000cc;stroke-width:8;stroke-linecap:butt;stroke-linejoin:round"
       id="polyline110" />
    <!-- Line -->
    <!--  polyline  -->
    <polyline
       points="3174,3540 3202,3559 3230,3573 3264,3592 3296,3606 3334,3620 3372,3629 3411,3645 3448,3653 3490,3662 3533,3672 3575,3677 3618,3687 3665,3691 3712,3696 3759,3700 3807,3700 3854,3700 3906,3700 3959,3700 4005,3700 4062,3696 4114,3691 4166,3687 4222,3681 4275,3677 4331,3667 4383,3658 4440,3648 4496,3634 4553,3625 4611,3611 4666,3596 4723,3582 4781,3568 4837,3549 4893,3530 4950,3511 5007,3492 5063,3474 5116,3455 5172,3432 5224,3407 5281,3384 5333,3360 5385,3336 5441,3308 5489,3286 5541,3256 5592,3228 5640,3199 5687,3171 5734,3143 5781,3114 5829,3081 5871,3054 5914,3020 5956,2992 5999,2959 6037,2925 6074,2892 6112,2859 6150,2826 6183,2793 6216,2760 6244,2727 6274,2695 6301,2661 6329,2628 6353,2595 6377,2562 6401,2529 6419,2496 6438,2462 6452,2429 6471,2396 6481,2363 6495,2330 6504,2302 6514,2269 6518,2236 6523,2207 6523,2174 6528,2146 6523,2118 6523,2089 6518,2061 6514,2033 6504,2004 6495,1976 6481,1952 6471,1929 6452,1900 6438,1877 6419,1854 6401,1834 6377,1812 6353,1792 6329,1773 6301,1754 6274,1735 6244,1716 6216,1702 6183,1683 6150,1669 6112,1655 6074,1645 6037,1631 5999,1623 5956,1612 5914,1603 5871,1598 5829,1588 5781,1584 5734,1580 5687,1574 5640,1574 5592,1574 5541,1574 5489,1574 5441,1574 5385,1580 5333,1584 5281,1588 5224,1593 5172,1598 5116,1607 5063,1617 5007,1626 4950,1640 4893,1650 4837,1665 4781,1678 4723,1692 4666,1708 4611,1725 4553,1744 4496,1763 4440,1782 4383,1801 4331,1820 4275,1844 4222,1867 4166,1891 4114,1914 4062,1939 4005,1966 3959,1990 3906,2018 3854,2047 3807,2075 3759,2103 3712,2132 3665,2160 3618,2193 3575,2222 3533,2255 3490,2283 3448,2317 "
       style="stroke:#0000cc;stroke-width:8;stroke-linecap:butt;stroke-linejoin:round"
       id="polyline112" />
    <!-- Line -->
    <!--  polyline  -->
    <polyline
       points="3542,3687 3581,3700 3623,3714 3660,3729 3703,3738 3750,3752 3792,3757 3840,3766 3887,3776 3934,3781 3986,3785 4033,3791 4086,3791 4137,3795 4190,3795 4241,3791 4298,3791 4350,3785 4407,3781 4459,3776 4515,3771 4572,3762 4629,3752 4685,3743 4742,3733 4799,3719 4855,3706 4912,3691 4970,3677 5026,3658 5082,3645 5139,3625 5191,3606 5248,3582 5304,3563 5361,3540 5413,3517 5470,3492 5522,3469 5574,3440 5626,3417 5677,3388 5725,3360 5777,3332 5824,3303 5871,3270 5918,3243 5966,3209 6008,3176 6055,3143 6098,3110 6136,3077 6178,3044 6216,3012 6254,2977 6287,2940 6325,2908 6359,2869 6386,2831 6419,2798 6448,2760 6476,2722 6500,2689 6523,2651 6548,2614 6566,2576 6585,2543 6603,2506 6618,2467 6633,2434 6641,2396 6655,2360 6660,2325 6670,2292 6675,2255 6679,2222 6679,2188 6679,2155 6675,2118 6675,2089 6665,2056 6660,2023 6651,1995 6637,1962 6627,1933 6613,1905 6594,1877 6575,1848 6556,1820 6537,1796 6514,1769 6490,1744 6462,1721 6433,1697 6405,1678 6377,1655 6344,1636 6311,1617 6274,1603 6235,1584 6197,1570 6159,1555 6122,1541 6079,1527 6037,1518 5989,1503 5947,1495 5900,1489 5853,1480 5805,1476 5753,1470 5707,1466 5654,1466 5602,1461 5550,1461 5498,1466 5446,1466 5390,1470 5337,1476 5281,1480 5224,1485 5167,1495 5111,1503 5054,1513 5002,1522 4941,1537 4885,1551 4827,1565 4770,1580 4714,1593 4657,1612 4605,1631 4549,1650 4492,1674 4435,1692 4383,1716 4326,1740 4275,1763 4218,1787 4166,1815 4114,1839 4062,1867 4015,1897 3963,1924 3916,1952 3868,1985 3821,2014 3774,2047 3731,2080 3685,2108 3641,2141 3604,2179 3561,2213 3523,2245 3485,2278 3453,2317 3415,2349 "
       style="stroke:#0000cc;stroke-width:8;stroke-linecap:butt;stroke-linejoin:round"
       id="polyline114" />
    <!-- Line -->
    <!--  polyline  -->
    <polyline
       points="3948,3791 3996,3799 4044,3809 4095,3818 4142,3828 4194,3834 4246,3837 4298,3842 4350,3847 4407,3847 4459,3847 4515,3847 4572,3842 4629,3842 4681,3837 4738,3828 4794,3823 4855,3814 4912,3804 4970,3795 5026,3785 5082,3771 5139,3757 5196,3743 5252,3724 5309,3706 5366,3687 5422,3667 5479,3648 5537,3625 5588,3602 5644,3577 5696,3554 5749,3530 5800,3502 5853,3474 5904,3445 5952,3417 5999,3388 6046,3355 6093,3328 6141,3294 6183,3261 6226,3228 6268,3195 6311,3158 6348,3124 6386,3086 6424,3048 6462,3015 6495,2977 6528,2940 6556,2902 6585,2865 6613,2826 6641,2784 6665,2746 6688,2708 6712,2670 6731,2628 6750,2591 6764,2552 6779,2510 6792,2472 6802,2434 6811,2396 6822,2360 6826,2321 6830,2278 6830,2240 6830,2207 6830,2171 6826,2132 6822,2094 6816,2061 6807,2023 6797,1990 6783,1958 6769,1924 6755,1891 6737,1858 6718,1829 6698,1796 6675,1769 6651,1740 6622,1711 6599,1683 6566,1659 6537,1631 6504,1607 6471,1584 6438,1565 6401,1541 6363,1522 6325,1503 6282,1485 6244,1466 6197,1451 6155,1437 6112,1423 6065,1409 6018,1400 5970,1391 5918,1381 5871,1371 5819,1366 5767,1362 5715,1357 5664,1352 5607,1352 5555,1352 5498,1352 5441,1357 5385,1357 5333,1362 5276,1366 5219,1376 5159,1385 5101,1395 5044,1404 4988,1414 4931,1428 4874,1442 4818,1456 4761,1476 4704,1495 4648,1508 4591,1532 4534,1551 4477,1574 4426,1593 4369,1617 4318,1645 4265,1669 4213,1697 4161,1725 4109,1754 4062,1782 4015,1812 3967,1844 3920,1872 3874,1905 3830,1939 3788,1971 3745,2004 3703,2043 3665,2075 3627,2113 3589,2151 3552,2184 3519,2222 3485,2259 3457,2297 3429,2335 "
       style="stroke:#0000cc;stroke-width:8;stroke-linecap:butt;stroke-linejoin:round"
       id="polyline116" />
    <!-- Line -->
    <!--  polyline  -->
    <polyline
       points="4430,3851 4487,3856 4539,3861 4596,3861 4653,3866 4709,3866 4766,3866 4823,3861 4879,3861 4936,3856 4992,3851 5054,3842 5111,3834 5167,3823 5224,3814 5286,3799 5342,3791 5399,3776 5455,3757 5512,3743 5569,3724 5626,3706 5682,3681 5734,3662 5791,3639 5843,3615 5900,3592 5952,3563 5999,3540 6051,3511 6103,3483 6150,3455 6197,3422 6244,3388 6292,3360 6334,3328 6377,3294 6419,3256 6462,3223 6500,3185 6537,3152 6575,3114 6608,3077 6641,3039 6675,3001 6707,2959 6737,2921 6764,2883 6788,2840 6811,2803 6835,2760 6859,2718 6877,2680 6892,2637 6911,2595 6925,2557 6934,2514 6944,2472 6953,2429 6963,2392 6967,2349 6967,2311 6972,2269 6972,2232 6967,2188 6963,2151 6958,2113 6949,2070 6939,2033 6929,1995 6915,1962 6901,1924 6887,1886 6868,1854 6844,1820 6826,1782 6802,1750 6779,1721 6750,1688 6722,1659 6693,1626 6660,1598 6627,1570 6594,1546 6556,1518 6518,1495 6481,1470 6438,1447 6401,1428 6359,1404 6311,1385 6268,1366 6221,1352 6174,1333 6127,1319 6074,1306 6027,1296 5975,1287 5923,1277 5871,1267 5819,1258 5763,1253 5711,1248 5654,1245 5597,1245 5541,1245 5484,1245 5427,1245 5370,1248 5314,1253 5252,1258 5196,1267 5139,1277 5082,1287 5021,1296 4964,1306 4907,1319 4851,1333 4794,1352 4738,1366 4681,1385 4624,1404 4567,1423 4511,1447 4459,1470 4402,1495 4350,1518 4298,1541 4246,1570 4199,1598 4148,1626 4100,1655 4052,1688 4005,1716 3959,1750 3916,1782 3874,1815 3830,1854 3788,1886 3750,1924 3712,1958 3674,1995 3637,2033 3604,2070 3570,2108 3542,2151 3514,2188 3485,2226 3457,2269 3433,2307 3415,2349 "
       style="stroke:#0000cc;stroke-width:8;stroke-linecap:butt;stroke-linejoin:round"
       id="polyline118" />
    <!-- Line -->
    <!--  polyline  -->
    <polyline
       points="4978,3851 5035,3851 5097,3847 5153,3842 5215,3837 5271,3834 5328,3823 5390,3814 5446,3804 5503,3791 5564,3776 5622,3762 5677,3748 5734,3729 5791,3710 5848,3691 5900,3672 5956,3648 6008,3625 6060,3602 6112,3577 6164,3549 6216,3521 6263,3492 6311,3464 6359,3436 6405,3403 6448,3371 6490,3336 6533,3303 6575,3270 6613,3233 6651,3199 6688,3162 6726,3124 6760,3086 6792,3048 6822,3006 6849,2969 6877,2925 6907,2888 6929,2845 6953,2803 6972,2765 6991,2722 7011,2680 7024,2637 7038,2595 7048,2552 7057,2510 7066,2467 7076,2425 7081,2382 7081,2340 7081,2297 7081,2255 7081,2213 7076,2171 7066,2132 7062,2089 7048,2047 7038,2009 7024,1971 7011,1929 6991,1891 6972,1854 6953,1815 6929,1782 6907,1744 6877,1711 6854,1674 6822,1640 6792,1607 6760,1580 6726,1546 6693,1518 6655,1489 6618,1461 6575,1434 6537,1404 6495,1381 6452,1357 6405,1333 6363,1314 6316,1296 6263,1272 6216,1258 6164,1239 6117,1225 6065,1211 6013,1196 5956,1187 5904,1173 5848,1168 5791,1160 5739,1154 5682,1144 5622,1144 5564,1140 5507,1140 5451,1140 5390,1140 5333,1144 5276,1149 5215,1154 5159,1160 5097,1168 5040,1177 4983,1187 4922,1202 4865,1215 4808,1229 4752,1245 4696,1262 4638,1281 4581,1300 4530,1319 4473,1343 4422,1366 4369,1391 4318,1414 4265,1442 4213,1470 4166,1499 4118,1527 4071,1555 4024,1588 3981,1623 3934,1655 3892,1688 3854,1721 3812,1759 3774,1792 3741,1829 3703,1867 3670,1905 3637,1943 3608,1985 3581,2023 3552,2066 3523,2103 3500,2146 3476,2188 3457,2226 3438,2269 3419,2311 "
       style="stroke:#0000cc;stroke-width:8;stroke-linecap:butt;stroke-linejoin:round"
       id="polyline120" />
    <!-- Line -->
    <!--  polyline  -->
    <polyline
       points="5626,3762 5682,3752 5744,3738 5800,3724 5857,3710 5909,3691 5966,3672 6023,3653 6074,3634 6127,3611 6178,3587 6230,3563 6282,3540 6329,3511 6381,3483 6429,3455 6471,3426 6518,3393 6561,3365 6603,3332 6646,3299 6684,3261 6722,3228 6760,3190 6797,3158 6830,3119 6864,3081 6892,3044 6925,3001 6949,2963 6977,2921 7000,2883 7024,2840 7043,2798 7062,2755 7081,2713 7096,2670 7109,2628 7123,2585 7133,2543 7142,2500 7147,2458 7152,2411 7156,2368 7156,2325 7152,2283 7152,2240 7147,2198 7142,2155 7133,2113 7123,2070 7109,2028 7096,1985 7081,1943 7062,1905 7043,1862 7024,1825 7000,1787 6977,1750 6949,1711 6920,1674 6892,1636 6859,1603 6830,1570 6792,1532 6760,1503 6722,1470 6684,1437 6641,1409 6603,1381 6561,1352 6514,1324 6471,1300 6424,1277 6377,1253 6329,1229 6277,1206 6230,1187 6178,1168 6127,1154 6070,1135 6018,1121 5961,1107 5909,1092 5853,1083 5796,1075 5739,1064 5677,1059 5622,1055 5564,1050 5503,1045 5446,1045 5390,1045 5328,1045 5266,1050 5210,1050 5148,1055 5092,1064 5035,1075 4974,1078 4917,1092 4855,1102 4799,1117 4742,1130 4685,1144 4629,1163 4577,1182 4520,1202 4468,1220 4411,1245 4360,1267 4312,1291 4260,1319 4208,1343 4161,1371 4114,1400 4066,1428 4024,1461 3981,1489 3939,1522 3897,1555 3854,1593 3816,1626 3783,1665 3745,1697 3712,1735 3679,1773 3646,1812 3618,1854 3589,1891 3566,1933 3542,1971 3519,2014 3500,2056 3481,2099 3462,2141 3448,2184 3433,2226 3419,2269 3411,2311 "
       style="stroke:#0000cc;stroke-width:8;stroke-linecap:butt;stroke-linejoin:round"
       id="polyline122" />
    <!-- Line -->
    <!--  polyline  -->
    <polyline
       points="6254,3554 6301,3530 6353,3507 6401,3478 6448,3455 6495,3426 6542,3398 6585,3371 6627,3336 6670,3308 6707,3275 6745,3243 6783,3209 6822,3171 6854,3139 6887,3100 6915,3062 6949,3025 6972,2987 7000,2944 7024,2908 7048,2865 7066,2826 7085,2784 7104,2741 7118,2699 7133,2656 7147,2614 7156,2571 7166,2529 7170,2487 7175,2445 7181,2396 7181,2354 7181,2311 7175,2264 7170,2222 7166,2179 7156,2136 7147,2094 7133,2051 7118,2009 7104,1966 7085,1924 7066,1881 7048,1844 7024,1801 7000,1763 6972,1721 6949,1683 6915,1645 6887,1607 6854,1570 6822,1537 6783,1499 6745,1466 6707,1434 6670,1400 6627,1371 6585,1338 6542,1310 6495,1281 6448,1253 6401,1229 6353,1202 6301,1177 6254,1154 6202,1135 6150,1111 6093,1092 6041,1078 5985,1059 5928,1045 5876,1032 5819,1017 5758,1007 5701,993 5644,990 5588,979 5526,974 5470,971 5408,965 5352,960 5290,960 5229,960 5172,965 5111,971 5054,974 4992,979 4936,990 4879,993 4823,1007 4761,1017 4704,1032 4653,1045 4596,1059 4539,1078 4487,1092 4430,1111 4379,1135 4326,1154 4279,1177 4227,1202 4180,1229 4133,1253 4086,1281 4038,1310 3996,1338 3953,1371 3911,1400 3874,1434 3835,1466 3797,1499 3759,1537 3727,1570 3693,1607 3665,1645 3632,1683 3608,1721 3581,1763 3556,1801 3533,1844 3514,1881 3496,1924 3476,1966 3462,2009 3448,2051 3433,2094 3424,2136 3415,2179 3411,2222 3405,2264 3400,2311 "
       style="stroke:#0000cc;stroke-width:8;stroke-linecap:butt;stroke-linejoin:round"
       id="polyline124" />
    <!-- Line -->
    <!--  polyline  -->
    <polyline
       points="6329,1196 6282,1168 6230,1144 6178,1121 6127,1097 6074,1075 6023,1055 5966,1036 5909,1017 5857,998 5800,984 5744,971 5682,955 5626,946 5569,932 5507,922 5451,918 5390,908 5333,903 5271,899 5215,899 5153,899 5097,899 5035,899 4978,903 4922,908 4860,913 4804,918 4747,928 4690,936 4633,946 4581,960 4525,974 4473,990 4416,1003 4364,1022 4312,1040 4265,1059 4213,1083 4166,1107 4118,1130 4071,1154 4029,1177 3981,1206 3939,1234 3897,1262 3859,1291 3821,1324 3783,1352 3750,1385 3712,1423 3679,1456 3651,1489 3623,1527 3594,1565 3566,1603 3542,1640 3519,1678 3500,1716 3481,1759 3462,1796 3448,1839 3433,1881 3419,1924 3411,1966 3400,2009 3396,2051 3391,2094 3386,2136 3386,2179 3386,2222 3391,2264 3396,2311 "
       style="stroke:#0000cc;stroke-width:8;stroke-linecap:butt;stroke-linejoin:round"
       id="polyline126" />
    <!-- Line -->
    <!--  polyline  -->
    <polyline
       points="5564,932 5503,918 5446,903 5390,894 5328,886 5271,875 5215,870 5153,866 5097,861 5035,856 4978,856 4922,856 4865,856 4804,861 4747,861 4690,870 4633,875 4581,886 4525,889 4473,903 4416,913 4364,928 4312,941 4260,955 4213,974 4161,990 4114,1013 4066,1032 4024,1050 3977,1075 3934,1097 3892,1121 3849,1149 3812,1177 3774,1206 3736,1234 3703,1262 3670,1296 3637,1324 3604,1357 3575,1391 3547,1428 3523,1461 3500,1499 3476,1532 3457,1570 3438,1607 3419,1645 3405,1688 3391,1725 3377,1763 3367,1806 3363,1848 3353,1886 3349,1929 3349,1971 3344,2014 3349,2056 3349,2099 3353,2141 3363,2184 3367,2226 3381,2269 3391,2311 "
       style="stroke:#0000cc;stroke-width:8;stroke-linecap:butt;stroke-linejoin:round"
       id="polyline128" />
    <!-- Line -->
    <!--  polyline  -->
    <polyline
       points="4936,851 4879,847 4823,847 4766,843 4709,843 4653,843 4596,847 4539,847 4487,851 4430,856 4379,866 4326,875 4275,886 4222,894 4170,908 4123,918 4076,936 4029,951 3981,965 3934,984 3892,1003 3849,1026 3807,1045 3770,1069 3731,1092 3693,1117 3655,1144 3623,1168 3589,1196 3556,1225 3528,1258 3500,1287 3471,1319 3448,1352 3424,1385 3400,1418 3381,1451 3363,1485 3349,1522 3330,1560 3320,1598 3307,1631 3296,1674 3292,1711 3282,1750 3282,1787 3278,1829 3278,1867 3278,1910 3282,1947 3287,1990 3292,2033 3301,2070 3311,2113 3325,2155 3339,2193 3353,2236 3372,2278 3391,2321 "
       style="stroke:#0000cc;stroke-width:8;stroke-linecap:butt;stroke-linejoin:round"
       id="polyline130" />
    <!-- Line -->
    <!--  polyline  -->
    <polyline
       points="4350,861 4298,866 4246,870 4194,875 4142,880 4095,889 4044,899 3996,908 3948,918 3901,932 3859,946 3816,960 3770,974 3731,993 3689,1013 3651,1032 3613,1050 3575,1075 3542,1092 3509,1117 3476,1140 3448,1168 3415,1192 3391,1220 3363,1248 3339,1277 3315,1306 3296,1338 3278,1366 3259,1400 3244,1434 3230,1466 3216,1499 3207,1532 3197,1570 3193,1603 3188,1640 3183,1678 3183,1716 3183,1754 3183,1792 3188,1829 3193,1867 3202,1905 3211,1943 3222,1981 3235,2023 3249,2061 3264,2099 3282,2136 3301,2179 3325,2217 3349,2255 3372,2292 3400,2335 "
       style="stroke:#0000cc;stroke-width:8;stroke-linecap:butt;stroke-linejoin:round"
       id="polyline132" />
    <!-- Line -->
    <!--  spline  -->
    <polyline
       points="4761,2354 4761,2353 4761,2350 4760,2346 4760,2343 4760,2342 4759,2341 4759,2339 4756,2335 4754,2332 4751,2329 4750,2328 4749,2327 4748,2326 4745,2323 4742,2321 4741,2320 4739,2319 4735,2318 4731,2317 4728,2317 4725,2317 4723,2317 4722,2317 4720,2317 4714,2318 4712,2318 4711,2318 4709,2319 4707,2319 4704,2321 4701,2323 4698,2326 4697,2327 4697,2328 4696,2329 4693,2332 4691,2335 4690,2337 4689,2337 4689,2339 4687,2342 4686,2346 4685,2349 4685,2352 4685,2354 4685,2355 4686,2358 4686,2363 4687,2365 4687,2366 4688,2368 4689,2370 4691,2373 4693,2376 4696,2380 4697,2381 4698,2382 4701,2384 4704,2386 4705,2387 4706,2388 4707,2388 4711,2390 4716,2391 4719,2392 4721,2392 4723,2392 4724,2392 4727,2391 4731,2391 4734,2390 4735,2390 4737,2389 4739,2388 4742,2386 4745,2384 4748,2382 4749,2381 4750,2381 4751,2380 4754,2376 4756,2373 4758,2372 4758,2371 4759,2370 4760,2366 4761,2362 4761,2359 4761,2356 4761,2354 "
       style="stroke:#000000;stroke-width:8;stroke-linecap:butt;stroke-linejoin:bevel"
       id="polyline134" />
  </g>
</svg>
